DBRep_DrawableShape

CASCADE Topology V1, (c) Matra-Datavision
Locations 8
1
              1               0               0               0 
              0               1               0               0 
              0               0               1               0 
1
              1               0               0               0 
              0               1               0               0 
              0               0               1               0 
1
              1               0               0               0 
              0               1               0               0 
              0               0               1               0 
2  2 1 3 1 0
2  3 -1 2 -1 0
1
              1               0               0               0 
              0               1               0               0 
              0               0               1               0 
1
              1               0               0            -400 
              0               1               0           -1000 
              0               0               1            -900 
2  6 1 7 1 0
Curve2ds 20
1 0 500 1 0 
2 0 0 1 0 -0 1 200
8 -0.020244994252737483 500.02024499425272
1 3.1415926535897931 0 0 1 
8 -0.020244994252737483 500.02024499425272
1 900 200 1 0 
1 0 0 1 0 
2 0 0 1 0 -0 1 200
1 6.2831853071795862 -0 0 1 
1 0 -0 0 1 
8 -400 0
1 -200 0 -1 0 
8 -400 0
1 1400 200 0 -1 
1 0 500 1 0 
2 0 0 1 0 -0 1 180
8 -400 0
1 -200 0 -1 0 
8 -400 0
1 900 200 0 -1 
8 -0.020244994252737483 500.02024499425272
1 3.1415926535897931 0 0 1 
8 -0.020244994252737483 500.02024499425272
1 900 220 1 0 
1 0 0 1 0 
2 0 0 1 0 -0 1 180
1 6.2831853071795862 -0 0 1 
1 0 -0 0 1 
Curves 10
2 0 0 500 0 0 1 1 0 -0 -0 1 0 200
1 -200 0 0 0 0 1 
2 0 0 0 0 0 1 1 0 -0 -0 1 0 200
1 200 -4.8985871965894129e-14 0 0 0 1 
1 -200 0 500 -1 0 0 
2 0 0 500 0 0 1 1 0 -0 -0 1 0 180
1 -200 0 0 -1 0 0 
1 -180 0 0 0 0 1 
2 0 0 0 0 0 1 1 0 -0 -0 1 0 180
1 180 -4.4087284769304716e-14 0 0 0 1 
Polygon3D 0
PolygonOnTriangulations 0
Surfaces 7
2 0 0 0 0 0 1 1 0 -0 -0 1 0 200
1 0 0 500 0 0 1 1 0 -0 -0 1 0 
1 0 1000 0 -0 1 0 0 0 1 1 0 -0 
1 0 0 0 0 0 1 1 0 -0 -0 1 0 
2 0 0 0 0 0 1 1 0 -0 -0 1 0 180
1 0 0 500 0 0 1 1 0 -0 -0 1 0 
1 0 0 0 0 0 1 1 0 -0 -0 1 0 
Triangulations 0

TShapes 36
Ve
0.00506124856323336
200 -4.89858719658941e-14 500
0 0

0101101
*
Ve
0.00506124856320886
-200 2.44929359829471e-14 500
0 0

0101101
*
Ed
 1e-07 1 1 0
1  1 0 0 3.14159265358979
2  1 1 0 0 3.14159265358979
2  2 2 0 0 3.14159265358979
0

0101000
+36 5 -35 5 *
Ve
0.00506124856320886
-200 2.44929359829471e-14 0
0 0

0101101
*
Ed
 1e-07 1 1 0
1  2 0 0 500
2  3 1 4 0 500
2  4 3 8 0 500
0

0101000
+33 0 -35 0 *
Ve
0.00506124856323336
200 -4.89858719658941e-14 0
0 0

0101101
*
Ed
 1e-07 1 1 0
1  3 0 0 3.14159265358979
2  5 1 0 0 3.14159265358979
2  6 4 0 0 3.14159265358979
0

0101000
+31 5 -33 5 *
Ed
 1.00000048985872e-07 1 1 0
1  4 0 0 500
3  7 8CN 1 0 0 500
0

0101000
+31 5 -36 5 *
Wi

0101100
-34 4 +32 0 +30 4 -29 4 *
Fa
0  1e-07 1 4

0101000
+28 0 *
Ve
0.00506124856322846
180 -4.40872847693047e-14 500
0 0

0101101
*
Ed
 0.00506124856318437 1 1 0
1  5 0 -400 -380
2  9 2 4 -400 -380
2  10 3 8 -400 -380
0

0101000
+36 0 -26 0 *
Ve
0.00506124856320641
-180 2.20436423846524e-14 500
0 0

0101101
*
Ed
 1e-07 1 1 0
1  6 0 0 3.14159265358979
2  11 5 0 0 3.14159265358979
2  12 6 0 0 3.14159265358979
0

0101000
+26 5 -24 5 *
Ed
 0.00506124856318437 1 1 0
1  5 0 -20 0
2  9 2 4 -20 0
2  10 3 8 -20 0
0

0101000
+24 0 -35 0 *
Wi

0101100
-25 0 -23 4 -22 0 +34 4 *
Fa
0  1e-07 2 4

0101000
+21 0 *
Ve
0.00506124856320641
-180 2.20436423846524e-14 0
0 0

0101101
*
Ed
 0.00506124856318437 1 1 0
1  7 0 -20 0
2  13 4 4 -20 0
2  14 3 8 -20 0
0

0101000
+19 0 -33 0 *
Ed
 1e-07 1 1 0
1  8 0 0 500
2  15 5 4 0 500
2  16 3 8 0 500
0

0101000
+19 0 -24 0 *
Wi

0101100
+18 0 -17 0 -22 0 +32 0 *
Fa
0  1e-07 3 8

0101000
+16 0 *
Ve
0.00506124856322846
180 -4.40872847693047e-14 0
0 0

0101101
*
Ed
 0.00506124856318437 1 1 0
1  7 0 -400 -380
2  13 4 4 -400 -380
2  14 3 8 -400 -380
0

0101000
+31 0 -14 0 *
Ed
 1e-07 1 1 0
1  9 0 0 3.14159265358979
2  17 5 0 0 3.14159265358979
2  18 7 0 0 3.14159265358979
0

0101000
+14 5 -19 5 *
Wi

0101100
-13 0 -12 4 -18 0 +30 4 *
Fa
0  1e-07 4 4

0101000
+11 0 *
Ed
 1.00000044087285e-07 1 1 0
1  10 0 0 500
3  19 20CN 5 0 0 500
0

0101000
+14 5 -26 5 *
Wi

0101100
-29 4 -25 0 +9 4 +13 0 *
Fa
0  1e-07 3 8

0101000
+8 0 *
Wi

0101100
-23 4 +17 0 +12 4 -9 4 *
Fa
0  1e-07 5 4

0101000
+6 0 *
Sh

0101100
+27 0 +20 0 -15 0 -10 0 -7 0 -5 0 *
So

0100000
+4 0 *
Co

0100000
+3 0 *
Co

1100000
+2 1 *

+1 0 