# vtk DataFile Version 2.0
item, Created by Gmsh 4.13.1 
ASCII
DATASET UNSTRUCTURED_GRID
POINTS 222 double
200 -4.89858719658941e-14 500
-200 2.44929359829471e-14 500
-200 2.44929359829471e-14 0
200 -4.89858719658941e-14 0
180 -4.40872847693047e-14 500
-180 2.20436423846524e-14 500
-180 2.20436423846524e-14 0
180 -4.40872847693047e-14 0
190.2113032590308 61.80339887498939 500
161.8033988749896 117.5570504584944 500
117.5570504584948 161.8033988749893 500
61.80339887498975 190.2113032590306 500
3.675178358715236e-13 200 500
-61.80339887498904 190.2113032590309 500
-117.557050458494 161.8033988749899 500
-161.8033988749889 117.5570504584954 500
-190.2113032590304 61.80339887499044 500
-200 0 62.49999999999979
-200 0 124.9999999999996
-200 0 187.4999999999994
-200 0 249.9999999999991
-200 0 312.4999999999992
-200 0 374.9999999999995
-200 0 437.4999999999998
190.2113032590308 61.80339887498939 0
161.8033988749896 117.5570504584944 0
117.5570504584948 161.8033988749893 0
61.80339887498975 190.2113032590306 0
3.675178358715236e-13 200 0
-61.80339887498904 190.2113032590309 0
-117.557050458494 161.8033988749899 0
-161.8033988749889 117.5570504584954 0
-190.2113032590304 61.80339887499044 0
200 -4.898587196589413e-14 62.49999999999979
200 -4.898587196589413e-14 124.9999999999996
200 -4.898587196589413e-14 187.4999999999994
200 -4.898587196589413e-14 249.9999999999991
200 -4.898587196589413e-14 312.4999999999992
200 -4.898587196589413e-14 374.9999999999995
200 -4.898587196589413e-14 437.4999999999998
169.1446717414635 61.56362579862035 500
137.8879997614161 115.701769743577 500
90.00000000000001 155.884572681199 500
31.2566719800476 177.2653955421974 500
-31.25667198004706 177.2653955421975 500
-89.99999999999947 155.8845726811992 500
-137.8879997614156 115.7017697435777 500
-169.1446717414632 61.56362579862115 500
-180 0 62.49999999999979
-180 0 124.9999999999996
-180 0 187.4999999999994
-180 0 249.9999999999991
-180 0 312.4999999999992
-180 0 374.9999999999995
-180 0 437.4999999999998
169.1446717414635 61.56362579862035 0
137.8879997614161 115.701769743577 0
90.00000000000001 155.884572681199 0
31.2566719800476 177.2653955421974 0
-31.25667198004706 177.2653955421975 0
-89.99999999999947 155.8845726811992 0
-137.8879997614156 115.7017697435777 0
-169.1446717414632 61.56362579862115 0
180 -4.408728476930472e-14 62.49999999999979
180 -4.408728476930472e-14 124.9999999999996
180 -4.408728476930472e-14 187.4999999999994
180 -4.408728476930472e-14 249.9999999999991
180 -4.408728476930472e-14 312.4999999999992
180 -4.408728476930472e-14 374.9999999999995
180 -4.408728476930472e-14 437.4999999999998
-31.20877732129495 197.5500245965812 54.15827182909903
31.28689300804649 197.5376681190275 445.8654828783084
-192.6747495766966 53.63246102461878 281.2494080298798
192.6757812500009 53.62875459771384 218.7499999999993
193.6984048059392 49.80891462012087 343.1092035787996
-192.6787699276155 53.61801580794489 156.2595827860019
90.79809994790956 178.2013048376735 54.13451712169164
-90.7980999479088 178.2013048376739 445.8654828783085
-141.4213562373089 141.4213562373101 54.13451712169147
141.4213562373097 141.4213562373093 445.8654828783083
194.6588397868562 45.91226516776359 94.3269606384483
-192.9030307013733 52.80549920439172 404.8804714988493
-192.6971903441332 53.55177712715896 343.6126638657407
-171.2563675805555 103.3017742495919 312.4994392429581
-171.235784587979 103.3358895860448 249.9803975337313
-137.2476425677933 145.475374581347 281.2423177810133
-137.2367954274735 145.4856074695975 218.7039187051125
-93.16751286793364 176.9740504876447 249.9689921885865
-93.16864997372197 176.9734518566954 187.4197234016503
-42.25864895291278 195.4845430940116 218.6932398899578
-42.2327287710688 195.4901445611756 281.2419825352464
11.76537172229143 199.6536401577399 249.9568090895161
11.74679525678835 199.6547339814288 187.4110746376002
64.90508666845915 189.175394077982 218.6844601056722
64.9081113172896 189.1743563097872 281.225956434614
113.2871853766707 164.8211564982841 249.9586480434376
113.2989371380445 164.8130784961844 187.4155057808051
113.7197435177981 164.5230073097566 314.1822041363283
-137.2450945729662 145.477778425633 343.7695387373432
153.3572908348249 128.3804554743554 281.225360465234
64.90984426902916 189.1737617032827 343.775098188422
-136.8172379164927 145.8802365260689 157.2150590534958
-92.72210378553389 177.2078200012197 125.9978135483811
154.0055995889898 127.6020191659824 343.2621470290591
153.3446704816223 128.3955296530322 218.7176381686944
153.3657733972195 128.3703219216682 156.1788235549491
111.198544104701 166.2374319730513 126.4909964738319
153.3920106442268 128.3389694150666 93.63598937734297
64.15161444410759 189.432231587485 157.0795802783556
3.660720705275881 199.9664950033329 117.7428204351995
-171.0580471709261 103.629843665178 187.4545386900718
-43.42803230619364 195.2280871442739 156.534857802096
193.2406712604072 51.55621175791752 281.210341347154
193.2667767611299 51.45826464586199 156.2596638716061
190.3333622877425 61.4264698663612 404.9794362417045
-193.0848834232613 52.13662621828894 94.24454258060409
-192.6440693360363 53.74255808623586 218.7179566257347
11.78234130941508 199.6526394347654 312.4795492120623
-42.24693679747416 195.4870745886547 343.7995371953654
-93.16779690331505 176.9739009576911 312.5186084283307
-171.4179055041596 103.0334978177825 374.9995099596147
-137.2547750196017 145.4686451931087 406.3070980672441
-92.93837021229578 177.0944926932575 375.8936032145328
-34.02576170279399 197.0843665554036 407.8153621979239
14.74777560772984 199.4555166312129 375.0510532268755
-165.9158876518724 111.6777427453262 117.103729411994
90.80375303270176 178.1984243341565 445.8690594778582
117.5571138946203 161.8033527859274 391.7435967905611
-90.89120212178928 178.153836267581 54.35778826431163
31.28689300804649 197.5376681190275 54.13451712169162
-175.384764611144 96.12587758919872 441.2166221872899
-176.8369836092381 93.42741154493177 52.46175168102093
176.8369836092311 93.42741154494499 447.5382483189881
178.2013048376737 90.79809994790921 50.06468350128777
161.7231992848961 117.6673566162586 398.7525501830593
61.80892702182168 190.2095069664267 399.6690860711907
70.67021717262068 187.0981571389057 100.0972320100988
141.4213562373097 141.4213562373093 43.15779571258615
-46.24822591487358 194.5792938617232 105.3897060355074
-31.28689300804576 197.5376681190276 457.86022791444
177.2725723113977 92.59824569666688 312.115457028812
176.9709518119232 93.17339864350741 187.500000000004
177.0105107005535 93.09822286987671 250.323976742727
178.7384457213506 89.73610210565094 123.2908033364292
-141.4213562373089 141.4213562373101 458.3131302083526
-133.2854407751759 149.1140210622968 105.5387178751014
-194.7595178853694 45.48329575853628 45.76649794333051
194.7595178853729 45.48329575852103 454.2335020566738
-194.4232593197876 46.89985325638703 453.2508630201107
194.8223320522943 45.21348176933072 45.58304616085039
177.6091782675645 91.95096407934219 360.5207343868638
120.4044519599258 159.6958607736278 82.26576908531248
-0.08964387954498845 179.9999776777066 445.902275072796
-0.08992324409853819 179.9999775383602 54.09788006244371
-170.8828717888719 56.56009307973235 278.6436223431746
171.8619791666669 53.51130830876907 281.2499999999992
171.8616105958517 53.51249203129881 156.2497553298465
-171.8619791666666 53.51130830877013 156.2499999999995
115.7017697435771 137.887999761416 445.9309647925523
-115.7017697435765 137.8879997614165 445.9309647925525
-115.7017697435765 137.8879997614165 54.06903520744755
115.7017697435771 137.887999761416 54.06903520744764
-170.8964804059644 56.51896128604834 404.6096540427964
171.8619791666666 53.51130830877018 406.2499999999997
171.8696812215483 53.48656538611682 343.7056254193388
148.1897176795938 102.1753765544433 312.5000165078267
148.1835562972832 102.1843121182988 249.9993707501202
111.1066527807096 141.6167776355148 281.2589872160636
111.0988353992384 141.6229104803772 218.7527326690292
63.9743689239851 168.2476749342405 250.0098694341135
63.96280147008503 168.252072879054 187.505609926651
11.05087057402271 179.660452686606 218.7681472783133
11.06967905093972 179.6592947935319 281.2758617692673
-42.87390402401599 174.8194164094465 250.0309061504457
-42.87240766668054 174.819783379519 187.5227501753907
-42.84906449248653 174.8255063545326 312.5335007622188
-92.91256093073382 154.1663258344463 218.77879348646
11.66995107843733 179.6213023052302 342.791170427864
110.6506716772132 141.9733385441843 342.71876244667
-92.6246392870527 154.3394835968534 156.9194037787541
110.5787709370523 142.0293470309954 157.2931120497505
63.46028495545173 168.4422519244292 126.0857765512319
-35.38029902778278 176.488624111314 382.0830888791334
-94.96158459557124 152.91271186889 343.5551440703924
-35.13952530474305 176.5367207165617 117.8824257996648
-131.1722316942183 123.2633182757884 188.897595238604
-136.2176733380153 117.6636964844202 250.5856892427612
-134.3479196174646 119.7941421541941 114.065191946432
-164.0098015865661 74.16727704004785 218.7990812332465
-141.1452515616401 111.7050489530412 315.2116078782796
-168.6236393258998 62.97672792777396 344.3634870810649
-96.46879150457619 151.9663524127845 282.0579724194908
-138.6090322704505 114.8369982760312 384.3464478127779
147.9812761720028 102.4770310972436 187.5210760718869
63.98607753192074 168.2432223956704 312.2887840823814
12.20611168092135 179.5856643433235 156.6199497707973
171.8619791666838 53.51130830871498 93.74999999999969
142.0087986680562 110.6051585634932 117.1421088201502
-168.3488697475562 63.70759809253798 100.0403220435301
171.8182518627957 53.65154542800146 218.6935041999202
142.0228976161508 110.5870541822701 382.8177619717405
61.65372408525936 169.1118514664738 54.31913858429262
-61.56469819660755 169.144281416667 54.06839552459207
61.65388294075362 169.1117935518627 445.6839773413204
-61.56456613560178 169.144329483832 445.931525701193
63.90692740427707 168.2733033780001 373.8520429427475
-154.4048543871646 92.51562539203032 52.42961971428717
154.3926344754582 92.53601687844338 447.5837617706446
-154.3926344754527 92.53601687845263 447.5837617706503
154.3926344754685 92.53601687842621 52.4162382293667
-90.00008428716575 155.8845240179507 100.3199349180112
-90.00007424592749 155.8845298152692 399.7234615389808
15.09668850227681 179.3657994051966 105.4377613035256
15.12630163609282 179.3633044934608 394.5393269586899
106.0152116865906 145.4674358440658 104.6498330731038
106.8018298882759 144.8908869891954 394.4680163074411
-173.0310237040806 49.60105680242992 46.59509459351735
-174.1830447395038 45.3901633096424 454.239216836599
174.1830447395065 45.39016330963219 454.2392168365948
174.1830447395079 45.39016330962653 45.76078316339887
-177.1685272565588 31.80114698783665 219.196288809963
-153.5065366691619 93.99863403177332 156.288848554963

CELLS 1082 4798
1 0
1 1
1 2
1 3
1 4
1 5
1 6
1 7
2 0 8
2 8 9
2 9 10
2 10 11
2 11 12
2 12 13
2 13 14
2 14 15
2 15 16
2 16 1
2 2 17
2 17 18
2 18 19
2 19 20
2 20 21
2 21 22
2 22 23
2 23 1
2 3 24
2 24 25
2 25 26
2 26 27
2 27 28
2 28 29
2 29 30
2 30 31
2 31 32
2 32 2
2 3 33
2 33 34
2 34 35
2 35 36
2 36 37
2 37 38
2 38 39
2 39 0
2 0 4
2 4 40
2 40 41
2 41 42
2 42 43
2 43 44
2 44 45
2 45 46
2 46 47
2 47 5
2 5 1
2 6 2
2 6 48
2 48 49
2 49 50
2 50 51
2 51 52
2 52 53
2 53 54
2 54 5
2 3 7
2 7 55
2 55 56
2 56 57
2 57 58
2 58 59
2 59 60
2 60 61
2 61 62
2 62 6
2 7 63
2 63 64
2 64 65
2 65 66
2 66 67
2 67 68
2 68 69
2 69 4
3 0 147 8
3 39 147 0
3 16 148 1
3 1 148 23
3 17 146 2
3 2 146 32
3 24 149 3
3 3 149 33
3 8 132 9
3 8 147 132
3 9 79 10
3 9 132 79
3 10 126 11
3 79 126 10
3 11 71 12
3 11 126 71
3 12 139 13
3 71 139 12
3 13 77 14
3 13 139 77
3 14 144 15
3 77 144 14
3 15 130 16
3 15 144 130
3 130 148 16
3 18 115 17
3 115 146 17
3 19 75 18
3 75 115 18
3 20 116 19
3 19 116 75
3 21 72 20
3 72 116 20
3 22 82 21
3 21 82 72
3 23 81 22
3 81 82 22
3 23 148 81
3 25 133 24
3 133 149 24
3 26 137 25
3 25 137 133
3 27 76 26
3 76 137 26
3 28 129 27
3 27 129 76
3 29 70 28
3 70 129 28
3 30 128 29
3 29 128 70
3 31 78 30
3 78 128 30
3 32 131 31
3 31 131 78
3 32 146 131
3 33 80 34
3 33 149 80
3 34 113 35
3 80 113 34
3 35 73 36
3 35 113 73
3 36 112 37
3 73 112 36
3 37 74 38
3 37 112 74
3 38 114 39
3 74 114 38
3 114 147 39
3 109 129 70
3 70 138 109
3 128 138 70
3 71 124 123
3 123 139 71
3 71 135 124
3 126 135 71
3 82 83 72
3 83 84 72
3 84 116 72
3 73 142 112
3 113 141 73
3 141 142 73
3 112 140 74
3 74 150 114
3 140 150 74
3 75 116 110
3 110 125 75
3 75 125 115
3 129 136 76
3 136 151 76
3 76 151 137
3 77 122 121
3 121 144 77
3 77 123 122
3 77 139 123
3 78 131 125
3 125 145 78
3 78 145 128
3 79 127 126
3 79 134 127
3 132 134 79
3 80 143 113
3 133 143 80
3 80 149 133
3 81 120 82
3 81 130 120
3 81 148 130
3 82 120 83
3 83 85 84
3 83 98 85
3 83 120 98
3 85 86 84
3 86 110 84
3 110 116 84
3 85 87 86
3 85 119 87
3 98 119 85
3 87 88 86
3 88 101 86
3 101 110 86
3 87 89 88
3 87 90 89
3 87 119 90
3 89 111 88
3 88 102 101
3 88 111 102
3 90 91 89
3 91 92 89
3 92 111 89
3 90 117 91
3 90 118 117
3 90 119 118
3 91 93 92
3 91 94 93
3 91 117 94
3 93 108 92
3 108 109 92
3 109 111 92
3 94 95 93
3 95 96 93
3 96 108 93
3 94 97 95
3 94 100 97
3 94 117 100
3 95 104 96
3 97 99 95
3 99 104 95
3 104 105 96
3 105 106 96
3 106 108 96
3 97 103 99
3 100 127 97
3 97 127 103
3 98 122 119
3 120 121 98
3 121 122 98
3 103 140 99
3 99 142 104
3 140 142 99
3 117 124 100
3 124 135 100
3 100 135 127
3 102 145 101
3 101 125 110
3 101 145 125
3 111 138 102
3 102 138 128
3 128 145 102
3 127 134 103
3 134 150 103
3 103 150 140
3 104 141 105
3 104 142 141
3 105 107 106
3 105 143 107
3 141 143 105
3 107 151 106
3 106 136 108
3 106 151 136
3 133 137 107
3 107 143 133
3 137 151 107
3 108 136 109
3 109 138 111
3 109 136 129
3 112 142 140
3 113 143 141
3 114 134 132
3 132 147 114
3 114 150 134
3 125 131 115
3 131 146 115
3 118 124 117
3 119 122 118
3 122 123 118
3 123 124 118
3 120 130 121
3 130 144 121
3 127 135 126
3 0 8 4
3 1 5 16
3 8 40 4
3 16 5 47
3 9 40 8
3 10 41 9
3 9 41 40
3 10 11 42
3 42 41 10
3 11 12 43
3 42 11 43
3 13 44 12
3 12 44 43
3 14 45 13
3 13 45 44
3 14 15 46
3 46 45 14
3 15 16 47
3 46 15 47
3 1 54 5
3 54 1 23
3 2 6 17
3 17 6 48
3 18 17 48
3 18 50 19
3 18 48 49
3 50 18 49
3 19 51 20
3 50 51 19
3 51 21 20
3 21 53 22
3 21 51 52
3 53 21 52
3 22 54 23
3 53 54 22
3 2 32 6
3 7 24 3
3 32 62 6
3 24 7 55
3 25 24 55
3 26 25 56
3 25 55 56
3 26 57 27
3 57 26 56
3 58 28 27
3 57 58 27
3 29 28 59
3 28 58 59
3 30 29 60
3 29 59 60
3 31 30 61
3 30 60 61
3 31 62 32
3 62 31 61
3 69 0 4
3 0 69 39
3 7 3 63
3 63 3 33
3 34 63 33
3 64 34 35
3 63 34 64
3 35 36 66
3 64 35 65
3 65 35 66
3 66 36 37
3 68 37 38
3 66 37 67
3 37 68 67
3 38 39 69
3 68 38 69
3 4 40 218
3 69 4 218
3 47 5 217
3 5 54 217
3 48 6 216
3 6 62 216
3 55 7 219
3 7 63 219
3 40 41 207
3 40 207 218
3 41 42 158
3 41 158 207
3 42 43 203
3 158 42 203
3 43 44 152
3 43 152 203
3 44 45 204
3 152 44 204
3 45 46 159
3 45 159 204
3 46 47 208
3 159 46 208
3 208 47 217
3 49 48 198
3 198 48 216
3 50 49 157
3 157 49 198
3 51 50 220
3 50 157 220
3 52 51 154
3 154 51 220
3 53 52 190
3 52 154 190
3 54 53 162
3 162 53 190
3 54 162 217
3 56 55 209
3 209 55 219
3 57 56 161
3 161 56 209
3 58 57 201
3 57 161 201
3 59 58 153
3 153 58 201
3 60 59 202
3 59 153 202
3 61 60 160
3 160 60 202
3 62 61 206
3 61 160 206
3 62 206 216
3 63 64 196
3 63 196 219
3 64 65 156
3 64 156 196
3 65 66 199
3 156 65 199
3 66 67 155
3 66 155 199
3 67 68 164
3 155 67 164
3 68 69 163
3 68 163 164
3 163 69 218
3 182 152 204
3 152 182 213
3 203 152 213
3 153 184 202
3 184 153 212
3 153 201 212
3 186 154 188
3 154 186 189
3 188 154 220
3 154 189 190
3 155 164 165
3 155 165 166
3 155 166 199
3 156 193 197
3 193 156 199
3 196 156 197
3 157 188 220
3 188 157 221
3 157 198 221
3 158 200 207
3 200 158 215
3 158 203 215
3 192 159 208
3 159 192 211
3 204 159 211
3 160 187 206
3 187 160 210
3 160 202 210
3 197 161 209
3 161 197 214
3 201 161 214
3 162 190 192
3 162 192 208
3 162 208 217
3 164 163 200
3 200 163 207
3 207 163 218
3 165 164 200
3 166 165 167
3 167 165 178
3 178 165 200
3 166 167 168
3 166 168 193
3 166 193 199
3 168 167 169
3 169 167 194
3 167 178 194
3 168 169 170
3 168 170 180
3 168 180 193
3 170 169 171
3 171 169 172
3 172 169 194
3 170 171 195
3 180 170 181
3 181 170 195
3 171 172 173
3 171 173 174
3 171 174 195
3 173 172 175
3 175 172 177
3 177 172 194
3 174 173 176
3 173 175 191
3 176 173 191
3 174 176 179
3 174 179 184
3 174 184 195
3 175 177 182
3 175 182 183
3 175 183 191
3 179 176 185
3 185 176 186
3 186 176 191
3 182 177 213
3 177 194 205
3 177 205 213
3 194 178 205
3 178 200 215
3 205 178 215
3 184 179 210
3 179 185 187
3 179 187 210
3 180 181 214
3 193 180 197
3 197 180 214
3 181 195 212
3 201 181 212
3 181 201 214
3 183 182 211
3 182 204 211
3 183 189 191
3 189 183 192
3 192 183 211
3 195 184 212
3 202 184 210
3 185 186 188
3 187 185 221
3 185 188 221
3 189 186 191
3 187 198 206
3 198 187 221
3 190 189 192
3 196 197 209
3 196 209 219
3 206 198 216
3 205 203 213
3 203 205 215
4 178 97 127 103
4 95 104 168 96
4 176 87 88 86
4 108 195 92 109
4 191 87 85 119
4 96 105 180 106
4 75 221 125 110
4 128 145 210 102
4 85 84 86 186
4 110 116 188 84
4 211 77 122 121
4 99 167 97 95
4 93 94 169 95
4 122 183 98 119
4 173 89 87 90
4 98 189 83 85
4 183 98 189 192
4 150 164 200 165
4 185 179 187 101
4 170 108 93 96
4 123 139 152 71
4 118 90 175 119
4 169 167 168 95
4 163 150 164 200
4 193 180 105 197
4 185 86 101 110
4 89 88 111 174
4 185 187 221 101
4 191 176 87 173
4 172 117 94 91
4 88 102 179 101
4 170 168 180 96
4 90 117 172 91
4 197 196 143 156
4 19 20 220 116
4 135 203 213 205
4 169 170 171 93
4 121 120 98 192
4 165 167 99 166
4 104 168 193 166
4 178 200 165 103
4 58 27 28 129
4 94 172 169 194
4 42 11 10 126
4 100 127 135 205
4 212 109 136 129
4 76 27 26 57
4 84 188 186 154
4 184 111 174 195
4 107 197 161 209
4 92 91 171 93
4 162 120 192 190
4 101 125 221 110
4 175 118 182 177
4 59 70 28 29
4 100 97 127 178
4 174 111 184 179
4 213 123 71 124
4 118 124 177 117
4 123 182 152 204
4 111 92 195 109
4 91 171 89 92
4 166 142 155 199
4 186 85 189 191
4 159 144 77 121
4 43 12 11 71
4 139 77 123 204
4 183 175 118 182
4 100 94 97 194
4 120 83 190 82
4 77 13 14 45
4 115 198 131 125
4 123 122 118 182
4 172 169 171 91
4 211 159 121 192
4 128 29 60 30
4 191 183 175 119
4 175 173 90 172
4 173 174 89 171
4 198 115 75 125
4 171 173 172 91
4 9 10 79 41
4 189 83 154 190
4 201 136 181 214
4 167 97 194 178
4 152 44 139 204
4 91 94 169 93
4 90 173 89 91
4 139 12 13 44
4 129 27 76 201
4 172 117 177 194
4 212 136 181 201
4 123 77 122 211
4 179 174 88 176
4 79 158 10 126
4 210 138 128 102
4 190 52 53 82
4 104 142 99 166
4 113 73 199 65
4 117 177 175 172
4 28 70 153 129
4 204 44 13 45
4 169 168 170 93
4 71 11 203 126
4 60 202 59 29
4 175 90 118 117
4 60 61 160 30
4 115 49 48 198
4 143 196 133 80
4 199 73 112 66
4 199 112 155 66
4 155 112 74 67
4 29 202 70 128
4 153 59 28 58
4 194 169 94 167
4 12 44 152 43
4 201 58 27 57
4 166 99 104 95
4 102 210 184 179
4 170 171 92 195
4 11 203 42 43
4 191 85 98 119
4 166 168 167 95
4 185 221 188 110
4 89 87 88 176
4 73 199 65 66
4 66 35 73 36
4 35 66 73 65
4 51 20 21 72
4 92 171 174 195
4 86 185 176 186
4 120 189 192 190
4 168 93 95 96
4 215 203 135 205
4 177 124 100 117
4 158 207 134 79
4 207 134 200 158
4 31 78 61 30
4 182 122 183 211
4 199 166 142 141
4 46 14 45 159
4 111 89 174 92
4 104 168 166 95
4 70 202 153 184
4 81 23 22 54
4 155 112 67 66
4 166 167 99 95
4 73 36 112 66
4 200 150 165 103
4 85 98 189 191
4 113 73 65 35
4 9 8 40 132
4 38 69 163 68
4 164 140 155 165
4 195 170 181 108
4 135 213 71 124
4 52 154 72 82
4 205 177 100 194
4 130 15 16 47
4 20 220 116 72
4 161 214 197 107
4 163 207 134 200
4 94 100 117 194
4 138 70 202 128
4 37 66 112 36
4 66 37 112 67
4 191 175 173 90
4 192 121 120 130
4 35 65 113 64
4 199 156 193 141
4 136 181 108 109
4 154 83 84 72
4 56 26 57 161
4 10 158 41 42
4 90 87 191 119
4 193 105 104 141
4 105 193 197 143
4 140 142 155 165
4 38 39 114 163
4 38 69 39 163
4 85 86 87 186
4 128 160 78 30
4 71 152 123 213
4 197 106 105 107
4 139 13 77 204
4 142 155 165 166
4 154 52 190 82
4 53 81 162 82
4 193 104 105 96
4 34 35 113 64
4 143 193 197 156
4 131 62 32 31
4 46 144 159 208
4 37 74 112 67
4 156 113 199 65
4 205 100 127 178
4 130 208 15 47
4 209 56 25 55
4 207 40 9 41
4 37 68 74 67
4 53 21 22 82
4 211 123 77 204
4 193 166 199 141
4 162 130 120 81
4 180 168 193 96
4 121 98 211 192
4 51 21 52 72
4 132 207 9 79
4 72 21 52 82
4 176 174 89 173
4 126 79 158 127
4 83 84 85 186
4 159 121 192 208
4 129 76 136 201
4 145 160 78 128
4 193 168 104 96
4 135 71 203 126
4 31 206 62 61
4 86 176 87 186
4 208 46 15 47
4 122 98 211 121
4 54 22 81 53
4 54 81 162 53
4 166 104 142 141
4 155 74 164 67
4 190 53 162 82
4 146 6 32 62
4 103 140 165 99
4 167 94 97 95
4 125 206 131 78
4 98 183 211 192
4 105 180 193 96
4 202 60 160 128
4 183 191 98 119
4 1 23 148 54
4 56 25 26 137
4 22 81 53 82
4 108 92 170 93
4 118 123 182 124
4 63 196 64 80
4 191 98 189 183
4 135 203 215 126
4 56 137 161 209
4 220 20 51 72
4 134 200 127 103
4 84 116 154 72
4 105 197 107 143
4 42 158 203 126
4 63 33 3 149
4 76 201 57 161
4 109 136 181 212
4 83 120 189 98
4 7 24 55 219
4 153 58 129 201
4 218 4 8 40
4 137 107 209 133
4 77 204 45 159
4 148 5 1 54
4 173 87 191 90
4 88 185 86 101
4 202 70 138 184
4 152 139 12 71
4 7 24 219 149
4 147 4 8 218
4 186 87 85 191
4 21 53 52 82
4 152 182 123 213
4 5 148 217 54
4 98 183 122 211
4 210 202 138 184
4 168 170 93 96
4 69 4 0 147
4 157 116 188 110
4 63 3 7 149
4 68 37 74 38
4 130 120 192 162
4 156 113 65 64
4 50 18 19 75
4 8 0 4 147
4 202 153 59 70
4 192 208 130 162
4 186 176 87 191
4 24 7 3 149
4 158 215 203 126
4 84 110 86 186
4 46 15 14 144
4 67 74 164 68
4 169 168 93 95
4 160 145 210 128
4 6 146 216 62
4 137 76 26 161
4 161 151 76 214
4 154 51 52 72
4 198 48 115 216
4 107 209 133 143
4 147 69 4 218
4 207 9 40 132
4 209 107 197 143
4 219 63 7 149
4 113 34 64 80
4 180 108 96 106
4 74 164 68 163
4 167 169 94 95
4 17 6 2 146
4 125 221 198 187
4 116 188 220 157
4 76 201 161 214
4 34 63 80 33
4 160 206 187 78
4 140 142 165 99
4 146 6 2 32
4 196 209 197 143
4 156 113 64 80
4 137 151 76 161
4 99 142 165 166
4 133 25 24 55
4 166 193 104 141
4 49 18 50 75
4 129 212 153 201
4 90 191 175 119
4 220 19 116 75
4 14 46 144 159
4 105 193 143 141
4 188 110 84 186
4 134 215 158 79
4 183 118 122 182
4 85 189 83 186
4 39 69 0 147
4 43 203 152 71
4 160 145 187 210
4 163 207 132 134
4 16 5 148 217
4 140 142 112 155
4 150 163 134 200
4 157 188 221 110
4 122 118 183 119
4 5 16 47 217
4 157 75 221 125
4 181 170 180 108
4 196 133 209 143
4 163 114 150 134
4 63 34 80 64
4 16 5 1 148
4 77 14 144 159
4 48 18 115 17
4 91 169 171 93
4 79 158 207 41
4 64 196 156 80
4 116 157 75 110
4 208 144 121 130
4 84 116 188 154
4 176 89 87 173
4 181 195 109 212
4 157 49 50 75
4 167 165 97 178
4 194 100 205 178
4 132 114 163 134
4 181 195 108 109
4 169 172 94 91
4 207 132 134 79
4 88 102 111 179
4 172 94 117 194
4 111 102 184 179
4 79 207 9 41
4 131 206 62 31
4 156 143 193 141
4 97 165 167 99
4 47 16 130 217
4 202 210 138 128
4 71 203 152 213
4 19 220 50 75
4 18 48 115 49
4 26 56 137 161
4 75 157 198 125
4 142 73 199 141
4 108 170 180 96
4 189 120 83 190
4 174 89 88 176
4 206 125 187 78
4 210 202 160 128
4 79 10 158 41
4 109 138 70 212
4 146 48 6 216
4 214 151 106 107
4 121 192 208 130
4 185 86 110 186
4 171 89 173 91
4 78 160 206 61
4 173 90 172 91
4 6 17 48 146
4 31 131 206 78
4 209 25 137 133
4 208 15 144 130
4 120 189 98 192
4 154 220 51 72
4 215 200 134 158
4 75 49 18 115
4 76 136 201 214
4 165 97 103 99
4 198 206 125 187
4 130 208 47 217
4 181 108 106 136
4 194 94 97 167
4 126 215 135 127
4 157 50 220 75
4 110 188 185 186
4 133 209 25 55
4 198 157 221 125
4 148 130 16 217
4 39 147 114 163
4 210 145 187 179
4 61 78 160 30
4 10 158 42 126
4 171 170 92 93
4 147 39 69 163
4 121 159 144 208
4 105 180 106 197
4 117 175 90 172
4 57 26 76 161
4 42 203 11 126
4 180 181 106 214
4 27 76 201 57
4 128 60 160 30
4 182 123 211 204
4 134 215 79 127
4 40 8 218 132
4 178 165 97 103
4 185 176 88 86
4 175 183 118 119
4 217 81 162 54
4 177 175 118 117
4 204 77 211 159
4 157 220 116 75
4 154 116 220 72
4 182 123 122 211
4 218 8 147 132
4 14 77 45 159
4 148 23 81 54
4 220 20 19 51
4 136 76 151 214
4 136 212 129 201
4 159 77 211 121
4 217 148 81 54
4 220 188 116 154
4 218 147 69 163
4 13 77 204 45
4 145 187 125 78
4 88 179 176 185
4 207 40 218 132
4 78 206 31 61
4 92 174 111 195
4 50 220 19 51
4 117 100 177 194
4 213 71 203 135
4 60 202 29 128
4 197 214 106 107
4 108 180 181 106
4 171 174 89 92
4 129 58 27 201
4 137 56 25 209
4 164 150 140 165
4 174 88 111 179
4 70 59 202 29
4 88 179 185 101
4 179 145 187 101
4 58 28 153 129
4 143 156 113 141
4 178 127 200 103
4 13 139 44 204
4 144 46 15 208
4 198 206 131 125
4 44 139 12 152
4 153 59 70 28
4 145 210 102 179
4 195 92 170 108
4 80 196 133 149
4 107 161 137 209
4 124 182 118 177
4 11 203 43 71
4 97 100 194 178
4 109 184 138 212
4 214 106 180 197
4 43 152 12 71
4 152 139 123 204
4 111 184 138 109
4 184 111 195 109
4 55 133 209 219
4 214 161 151 107
4 179 102 145 101
4 33 63 80 149
4 206 62 216 131
4 177 124 213 205
4 109 195 184 212
4 207 218 163 132
4 125 187 145 101
4 205 127 215 178
4 48 146 115 216
4 216 146 115 131
4 55 24 133 219
4 136 151 106 214
4 146 17 48 115
4 219 133 196 149
4 150 74 164 140
4 124 100 135 205
4 187 145 160 78
4 200 215 127 178
4 184 138 102 111
4 24 133 219 149
4 124 213 182 177
4 158 215 126 127
4 221 75 157 110
4 200 134 150 103
4 101 221 185 110
4 100 124 177 205
4 208 130 162 217
4 184 138 210 102
4 196 209 133 219
4 215 135 127 205
4 187 125 221 101
4 165 150 140 103
4 115 198 216 131
4 206 216 198 131
4 215 158 79 127
4 161 137 151 107
4 134 200 215 127
4 135 213 124 205
4 136 106 181 214
4 213 182 123 124
4 62 146 131 32
4 62 131 146 216
4 112 199 142 73
4 142 199 112 155
4 83 186 154 84
4 154 186 83 189
4 163 38 74 114
4 163 74 38 68
4 70 212 184 153
4 184 212 70 138
4 212 70 129 153
4 212 129 70 109
4 74 155 140 112
4 140 155 74 164
4 82 154 83 190
4 82 83 154 72
4 162 82 120 190
4 120 82 162 81
4 113 199 141 156
4 141 199 113 73
4 156 80 143 113
4 143 80 156 196
4 74 163 150 164
4 150 163 74 114
4 198 75 49 157
4 198 49 75 115
4 81 217 130 148
4 130 217 81 162
4 149 196 63 80
4 149 63 196 219
4 163 147 132 218
4 163 132 147 114

CELL_TYPES 1082
1
1
1
1
1
1
1
1
3
3
3
3
3
3
3
3
3
3
3
3
3
3
3
3
3
3
3
3
3
3
3
3
3
3
3
3
3
3
3
3
3
3
3
3
3
3
3
3
3
3
3
3
3
3
3
3
3
3
3
3
3
3
3
3
3
3
3
3
3
3
3
3
3
3
3
3
3
3
3
3
3
3
5
5
5
5
5
5
5
5
5
5
5
5
5
5
5
5
5
5
5
5
5
5
5
5
5
5
5
5
5
5
5
5
5
5
5
5
5
5
5
5
5
5
5
5
5
5
5
5
5
5
5
5
5
5
5
5
5
5
5
5
5
5
5
5
5
5
5
5
5
5
5
5
5
5
5
5
5
5
5
5
5
5
5
5
5
5
5
5
5
5
5
5
5
5
5
5
5
5
5
5
5
5
5
5
5
5
5
5
5
5
5
5
5
5
5
5
5
5
5
5
5
5
5
5
5
5
5
5
5
5
5
5
5
5
5
5
5
5
5
5
5
5
5
5
5
5
5
5
5
5
5
5
5
5
5
5
5
5
5
5
5
5
5
5
5
5
5
5
5
5
5
5
5
5
5
5
5
5
5
5
5
5
5
5
5
5
5
5
5
5
5
5
5
5
5
5
5
5
5
5
5
5
5
5
5
5
5
5
5
5
5
5
5
5
5
5
5
5
5
5
5
5
5
5
5
5
5
5
5
5
5
5
5
5
5
5
5
5
5
5
5
5
5
5
5
5
5
5
5
5
5
5
5
5
5
5
5
5
5
5
5
5
5
5
5
5
5
5
5
5
5
5
5
5
5
5
5
5
5
5
5
5
5
5
5
5
5
5
5
5
5
5
5
5
5
5
5
5
5
5
5
5
5
5
5
5
5
5
5
5
5
5
5
5
5
5
5
5
5
5
5
5
5
5
5
5
5
5
5
5
5
5
5
5
5
5
5
5
5
5
5
5
5
5
5
5
5
5
5
5
5
5
5
5
5
5
5
5
5
5
5
5
5
5
5
5
5
5
5
5
5
5
5
5
5
5
5
5
5
5
5
5
5
5
5
5
5
5
5
5
5
5
5
5
5
5
5
5
5
5
5
5
5
5
5
5
5
5
5
5
5
5
5
5
5
5
5
5
5
5
5
5
5
5
5
5
5
5
5
5
5
5
5
5
5
5
5
5
5
5
10
10
10
10
10
10
10
10
10
10
10
10
10
10
10
10
10
10
10
10
10
10
10
10
10
10
10
10
10
10
10
10
10
10
10
10
10
10
10
10
10
10
10
10
10
10
10
10
10
10
10
10
10
10
10
10
10
10
10
10
10
10
10
10
10
10
10
10
10
10
10
10
10
10
10
10
10
10
10
10
10
10
10
10
10
10
10
10
10
10
10
10
10
10
10
10
10
10
10
10
10
10
10
10
10
10
10
10
10
10
10
10
10
10
10
10
10
10
10
10
10
10
10
10
10
10
10
10
10
10
10
10
10
10
10
10
10
10
10
10
10
10
10
10
10
10
10
10
10
10
10
10
10
10
10
10
10
10
10
10
10
10
10
10
10
10
10
10
10
10
10
10
10
10
10
10
10
10
10
10
10
10
10
10
10
10
10
10
10
10
10
10
10
10
10
10
10
10
10
10
10
10
10
10
10
10
10
10
10
10
10
10
10
10
10
10
10
10
10
10
10
10
10
10
10
10
10
10
10
10
10
10
10
10
10
10
10
10
10
10
10
10
10
10
10
10
10
10
10
10
10
10
10
10
10
10
10
10
10
10
10
10
10
10
10
10
10
10
10
10
10
10
10
10
10
10
10
10
10
10
10
10
10
10
10
10
10
10
10
10
10
10
10
10
10
10
10
10
10
10
10
10
10
10
10
10
10
10
10
10
10
10
10
10
10
10
10
10
10
10
10
10
10
10
10
10
10
10
10
10
10
10
10
10
10
10
10
10
10
10
10
10
10
10
10
10
10
10
10
10
10
10
10
10
10
10
10
10
10
10
10
10
10
10
10
10
10
10
10
10
10
10
10
10
10
10
10
10
10
10
10
10
10
10
10
10
10
10
10
10
10
10
10
10
10
10
10
10
10
10
10
10
10
10
10
10
10
10
10
10
10
10
10
10
10
10
10
10
10
10
10
10
10
10
10
10
10
10
10
10
10
10
10
10
10
10
10
10
10
10
10
10
10
10
10
10
10
10
10
10
10
10
10
10
10
10
10
10
10
10
10
10
10
10
10
10
10
10
10
10
10
10
10
10
10
10
10
10
10
10
10
10
10
10
10
10
10
10
10
10
10
10
10
10
10
10
10
10
10
10
10
10
10
10
10
10
10
10
10
10
10
10
10
10
10
10
10
10
10
10
10
10
10
10
10
10
10
10
10
10
10
10
10
10
10
10
10
10
10
10
10
10
10
10
10
10
10
10
10
10
10
10
10
10
10
10
10
10
10
10
