solid Created by Gmsh
facet normal -1 0 0
  outer loop
    vertex 0 14.21919819386121 15.87025471634334
    vertex 0 19 12.50000000000004
    vertex 0 14.27019246214742 8.781711952820558
  endloop
endfacet
facet normal -1 0 0
  outer loop
    vertex 0 9.625171194521776 12.35209971000305
    vertex 0 14.21919819386121 15.87025471634334
    vertex 0 14.27019246214742 8.781711952820558
  endloop
endfacet
facet normal -1 0 0
  outer loop
    vertex 0 5.074001857678506 15.39056455615888
    vertex 0 9.775825936621994 19.32092017987738
    vertex 0 9.625171194521776 12.35209971000305
  endloop
endfacet
facet normal -1 0 0
  outer loop
    vertex 0 9.625171194521776 12.35209971000305
    vertex 0 9.775825936621994 19.32092017987738
    vertex 0 14.21919819386121 15.87025471634334
  endloop
endfacet
facet normal -1 0 0
  outer loop
    vertex 0 9.773180706981373 5.431058102181398
    vertex 0 5.032516664943767 9.37500000000003
    vertex 0 9.625171194521776 12.35209971000305
  endloop
endfacet
facet normal -1 0 0
  outer loop
    vertex 0 12.66666666666667 0
    vertex 0 6.333333333333348 0
    vertex 0 9.773180706981373 5.431058102181398
  endloop
endfacet
facet normal -1 0 0
  outer loop
    vertex 0 6.333333333333348 25
    vertex 0 12.66666666666667 25
    vertex 0 9.775825936621994 19.32092017987738
  endloop
endfacet
facet normal -1 0 0
  outer loop
    vertex 0 0 12.50000000000004
    vertex 0 0 18.75000000000003
    vertex 0 5.074001857678506 15.39056455615888
  endloop
endfacet
facet normal -1 0 0
  outer loop
    vertex 0 5.032516664943767 9.37500000000003
    vertex 0 5.074001857678506 15.39056455615888
    vertex 0 9.625171194521776 12.35209971000305
  endloop
endfacet
facet normal -1 0 -0
  outer loop
    vertex 0 19 12.50000000000004
    vertex 0 19 6.250000000000018
    vertex 0 14.27019246214742 8.781711952820558
  endloop
endfacet
facet normal -1 0 -0
  outer loop
    vertex 0 19 18.75000000000003
    vertex 0 19 12.50000000000004
    vertex 0 14.21919819386121 15.87025471634334
  endloop
endfacet
facet normal -1 0 0
  outer loop
    vertex 0 0 6.250000000000018
    vertex 0 0 12.50000000000004
    vertex 0 5.032516664943767 9.37500000000003
  endloop
endfacet
facet normal -1 0 0
  outer loop
    vertex 0 0 25
    vertex 0 6.333333333333348 25
    vertex 0 4.542542780677252 20.45514598731641
  endloop
endfacet
facet normal -1 0 0
  outer loop
    vertex 0 0 18.75000000000003
    vertex 0 0 25
    vertex 0 4.542542780677252 20.45514598731641
  endloop
endfacet
facet normal -1 0 0
  outer loop
    vertex 0 6.333333333333348 0
    vertex 0 0 0
    vertex 0 4.227806141051698 4.211211620436289
  endloop
endfacet
facet normal -1 0 0
  outer loop
    vertex 0 5.032516664943767 9.37500000000003
    vertex 0 0 12.50000000000004
    vertex 0 5.074001857678506 15.39056455615888
  endloop
endfacet
facet normal -1 0 0
  outer loop
    vertex 0 0 0
    vertex 0 0 6.250000000000018
    vertex 0 4.227806141051698 4.211211620436289
  endloop
endfacet
facet normal -1 0 0
  outer loop
    vertex 0 9.773180706981373 5.431058102181398
    vertex 0 9.625171194521776 12.35209971000305
    vertex 0 14.27019246214742 8.781711952820558
  endloop
endfacet
facet normal -1 0 0
  outer loop
    vertex 0 12.66666666666667 0
    vertex 0 9.773180706981373 5.431058102181398
    vertex 0 15.06393057225718 3.937490192419675
  endloop
endfacet
facet normal -1 0 0
  outer loop
    vertex 0 12.66666666666667 25
    vertex 0 19 25
    vertex 0 14.93179440786174 20.91621029264542
  endloop
endfacet
facet normal -1 0 -0
  outer loop
    vertex 0 19 25
    vertex 0 19 18.75000000000003
    vertex 0 14.93179440786174 20.91621029264542
  endloop
endfacet
facet normal -1 0 0
  outer loop
    vertex 0 9.775825936621994 19.32092017987738
    vertex 0 12.66666666666667 25
    vertex 0 14.93179440786174 20.91621029264542
  endloop
endfacet
facet normal -1 0 0
  outer loop
    vertex 0 19 0
    vertex 0 12.66666666666667 0
    vertex 0 15.06393057225718 3.937490192419675
  endloop
endfacet
facet normal -1 0 0
  outer loop
    vertex 0 5.074001857678506 15.39056455615888
    vertex 0 0 18.75000000000003
    vertex 0 4.542542780677252 20.45514598731641
  endloop
endfacet
facet normal -1 0 0
  outer loop
    vertex 0 9.773180706981373 5.431058102181398
    vertex 0 6.333333333333348 0
    vertex 0 4.227806141051698 4.211211620436289
  endloop
endfacet
facet normal -1 0 -0
  outer loop
    vertex 0 19 6.250000000000018
    vertex 0 19 0
    vertex 0 15.06393057225718 3.937490192419675
  endloop
endfacet
facet normal -1 0 -0
  outer loop
    vertex 0 6.333333333333348 25
    vertex 0 9.775825936621994 19.32092017987738
    vertex 0 4.542542780677252 20.45514598731641
  endloop
endfacet
facet normal -1 -0 0
  outer loop
    vertex 0 9.775825936621994 19.32092017987738
    vertex 0 5.074001857678506 15.39056455615888
    vertex 0 4.542542780677252 20.45514598731641
  endloop
endfacet
facet normal -1 0 0
  outer loop
    vertex 0 9.773180706981373 5.431058102181398
    vertex 0 14.27019246214742 8.781711952820558
    vertex 0 15.06393057225718 3.937490192419675
  endloop
endfacet
facet normal -1 0 -0
  outer loop
    vertex 0 5.032516664943767 9.37500000000003
    vertex 0 9.773180706981373 5.431058102181398
    vertex 0 4.227806141051698 4.211211620436289
  endloop
endfacet
facet normal -1 0 0
  outer loop
    vertex 0 0 6.250000000000018
    vertex 0 5.032516664943767 9.37500000000003
    vertex 0 4.227806141051698 4.211211620436289
  endloop
endfacet
facet normal -1 0 0
  outer loop
    vertex 0 14.21919819386121 15.87025471634334
    vertex 0 9.775825936621994 19.32092017987738
    vertex 0 14.93179440786174 20.91621029264542
  endloop
endfacet
facet normal -1 -0 0
  outer loop
    vertex 0 19 18.75000000000003
    vertex 0 14.21919819386121 15.87025471634334
    vertex 0 14.93179440786174 20.91621029264542
  endloop
endfacet
facet normal -1 0 0
  outer loop
    vertex 0 14.27019246214742 8.781711952820558
    vertex 0 19 6.250000000000018
    vertex 0 15.06393057225718 3.937490192419675
  endloop
endfacet
facet normal 1 0 0
  outer loop
    vertex 66 14.21919819386121 15.87025471634334
    vertex 66 14.27019246214742 8.781711952820558
    vertex 66 19 12.50000000000004
  endloop
endfacet
facet normal 1 -0 0
  outer loop
    vertex 66 9.625171194521776 12.35209971000305
    vertex 66 14.27019246214742 8.781711952820558
    vertex 66 14.21919819386121 15.87025471634334
  endloop
endfacet
facet normal 1 -0 0
  outer loop
    vertex 66 5.074001857678506 15.39056455615888
    vertex 66 9.625171194521776 12.35209971000305
    vertex 66 9.775825936621994 19.32092017987738
  endloop
endfacet
facet normal 1 0 0
  outer loop
    vertex 66 9.625171194521776 12.35209971000305
    vertex 66 14.21919819386121 15.87025471634334
    vertex 66 9.775825936621994 19.32092017987738
  endloop
endfacet
facet normal 1 0 0
  outer loop
    vertex 66 9.773180706981373 5.431058102181398
    vertex 66 9.625171194521776 12.35209971000305
    vertex 66 5.032516664943767 9.37500000000003
  endloop
endfacet
facet normal 1 0 0
  outer loop
    vertex 66 12.66666666666667 0
    vertex 66 9.773180706981373 5.431058102181398
    vertex 66 6.333333333333348 0
  endloop
endfacet
facet normal 1 -0 0
  outer loop
    vertex 66 6.333333333333348 25
    vertex 66 9.775825936621994 19.32092017987738
    vertex 66 12.66666666666667 25
  endloop
endfacet
facet normal 1 0 0
  outer loop
    vertex 66 0 12.50000000000004
    vertex 66 5.074001857678506 15.39056455615888
    vertex 66 0 18.75000000000003
  endloop
endfacet
facet normal 1 0 0
  outer loop
    vertex 66 5.032516664943767 9.37500000000003
    vertex 66 9.625171194521776 12.35209971000305
    vertex 66 5.074001857678506 15.39056455615888
  endloop
endfacet
facet normal 1 0 0
  outer loop
    vertex 66 19 12.50000000000004
    vertex 66 14.27019246214742 8.781711952820558
    vertex 66 19 6.250000000000018
  endloop
endfacet
facet normal 1 0 0
  outer loop
    vertex 66 19 18.75000000000003
    vertex 66 14.21919819386121 15.87025471634334
    vertex 66 19 12.50000000000004
  endloop
endfacet
facet normal 1 0 0
  outer loop
    vertex 66 0 6.250000000000018
    vertex 66 5.032516664943767 9.37500000000003
    vertex 66 0 12.50000000000004
  endloop
endfacet
facet normal 1 -0 0
  outer loop
    vertex 66 0 25
    vertex 66 4.542542780677252 20.45514598731641
    vertex 66 6.333333333333348 25
  endloop
endfacet
facet normal 1 0 0
  outer loop
    vertex 66 0 18.75000000000003
    vertex 66 4.542542780677252 20.45514598731641
    vertex 66 0 25
  endloop
endfacet
facet normal 1 0 0
  outer loop
    vertex 66 6.333333333333348 0
    vertex 66 4.227806141051698 4.211211620436289
    vertex 66 0 0
  endloop
endfacet
facet normal 1 0 -0
  outer loop
    vertex 66 5.032516664943767 9.37500000000003
    vertex 66 5.074001857678506 15.39056455615888
    vertex 66 0 12.50000000000004
  endloop
endfacet
facet normal 1 0 0
  outer loop
    vertex 66 0 0
    vertex 66 4.227806141051698 4.211211620436289
    vertex 66 0 6.250000000000018
  endloop
endfacet
facet normal 1 0 -0
  outer loop
    vertex 66 9.773180706981373 5.431058102181398
    vertex 66 14.27019246214742 8.781711952820558
    vertex 66 9.625171194521776 12.35209971000305
  endloop
endfacet
facet normal 1 0 -0
  outer loop
    vertex 66 12.66666666666667 0
    vertex 66 15.06393057225718 3.937490192419675
    vertex 66 9.773180706981373 5.431058102181398
  endloop
endfacet
facet normal 1 -0 0
  outer loop
    vertex 66 12.66666666666667 25
    vertex 66 14.93179440786174 20.91621029264542
    vertex 66 19 25
  endloop
endfacet
facet normal 1 0 0
  outer loop
    vertex 66 19 25
    vertex 66 14.93179440786174 20.91621029264542
    vertex 66 19 18.75000000000003
  endloop
endfacet
facet normal 1 0 0
  outer loop
    vertex 66 9.775825936621994 19.32092017987738
    vertex 66 14.93179440786174 20.91621029264542
    vertex 66 12.66666666666667 25
  endloop
endfacet
facet normal 1 0 0
  outer loop
    vertex 66 19 0
    vertex 66 15.06393057225718 3.937490192419675
    vertex 66 12.66666666666667 0
  endloop
endfacet
facet normal 1 0 0
  outer loop
    vertex 66 5.074001857678506 15.39056455615888
    vertex 66 4.542542780677252 20.45514598731641
    vertex 66 0 18.75000000000003
  endloop
endfacet
facet normal 1 0 0
  outer loop
    vertex 66 9.773180706981373 5.431058102181398
    vertex 66 4.227806141051698 4.211211620436289
    vertex 66 6.333333333333348 0
  endloop
endfacet
facet normal 1 0 0
  outer loop
    vertex 66 19 6.250000000000018
    vertex 66 15.06393057225718 3.937490192419675
    vertex 66 19 0
  endloop
endfacet
facet normal 1 0 0
  outer loop
    vertex 66 6.333333333333348 25
    vertex 66 4.542542780677252 20.45514598731641
    vertex 66 9.775825936621994 19.32092017987738
  endloop
endfacet
facet normal 1 0 0
  outer loop
    vertex 66 9.775825936621994 19.32092017987738
    vertex 66 4.542542780677252 20.45514598731641
    vertex 66 5.074001857678506 15.39056455615888
  endloop
endfacet
facet normal 1 -0 0
  outer loop
    vertex 66 9.773180706981373 5.431058102181398
    vertex 66 15.06393057225718 3.937490192419675
    vertex 66 14.27019246214742 8.781711952820558
  endloop
endfacet
facet normal 1 0 0
  outer loop
    vertex 66 5.032516664943767 9.37500000000003
    vertex 66 4.227806141051698 4.211211620436289
    vertex 66 9.773180706981373 5.431058102181398
  endloop
endfacet
facet normal 1 -0 0
  outer loop
    vertex 66 0 6.250000000000018
    vertex 66 4.227806141051698 4.211211620436289
    vertex 66 5.032516664943767 9.37500000000003
  endloop
endfacet
facet normal 1 0 -0
  outer loop
    vertex 66 14.21919819386121 15.87025471634334
    vertex 66 14.93179440786174 20.91621029264542
    vertex 66 9.775825936621994 19.32092017987738
  endloop
endfacet
facet normal 1 0 0
  outer loop
    vertex 66 19 18.75000000000003
    vertex 66 14.93179440786174 20.91621029264542
    vertex 66 14.21919819386121 15.87025471634334
  endloop
endfacet
facet normal 1 0 0
  outer loop
    vertex 66 14.27019246214742 8.781711952820558
    vertex 66 15.06393057225718 3.937490192419675
    vertex 66 19 6.250000000000018
  endloop
endfacet
facet normal 0 -1 -0
  outer loop
    vertex 15.66855744749017 0 17.79362195725914
    vertex 12.82411160118399 0 10.68473763452858
    vertex 19.75728542827356 0 11.36465958273331
  endloop
endfacet
facet normal -0 -1 0
  outer loop
    vertex 33.00000000000004 0 25
    vertex 26.40000000000005 0 25
    vertex 30.01680742067288 0 17.10456659027388
  endloop
endfacet
facet normal 0 -1 -0
  outer loop
    vertex 26.40000000000005 0 25
    vertex 23.012733808538 0 17.9673759569211
    vertex 30.01680742067288 0 17.10456659027388
  endloop
endfacet
facet normal -0 -1 0
  outer loop
    vertex 26.40000000000005 0 25
    vertex 19.80000000000003 0 25
    vertex 23.012733808538 0 17.9673759569211
  endloop
endfacet
facet normal 0 -1 0
  outer loop
    vertex 15.66855744749017 0 17.79362195725914
    vertex 19.75728542827356 0 11.36465958273331
    vertex 23.012733808538 0 17.9673759569211
  endloop
endfacet
facet normal 0 -1 0
  outer loop
    vertex 52.80010217566838 0 11.35753531963424
    vertex 50.33499917930414 0 18.87048061387586
    vertex 46.26496658553721 0 15.60127031556345
  endloop
endfacet
facet normal 0 -1 0
  outer loop
    vertex 50.33499917930414 0 18.87048061387586
    vertex 52.80010217566838 0 11.35753531963424
    vertex 56.16769207479182 0 15.24317223807368
  endloop
endfacet
facet normal 0 -1 0
  outer loop
    vertex 12.82411160118399 0 10.68473763452858
    vertex 15.66855744749017 0 17.79362195725914
    vertex 9.90867896029466 0 14.78945661841686
  endloop
endfacet
facet normal 0 -1 -0
  outer loop
    vertex 19.80000000000003 0 25
    vertex 15.66855744749017 0 17.79362195725914
    vertex 23.012733808538 0 17.9673759569211
  endloop
endfacet
facet normal -0 -1 0
  outer loop
    vertex 36.97058732831965 0 19.204080362367
    vertex 33.00000000000004 0 25
    vertex 30.01680742067288 0 17.10456659027388
  endloop
endfacet
facet normal 0 -1 0
  outer loop
    vertex 9.864490975979315 0 5.154159643356698
    vertex 12.82411160118399 0 10.68473763452858
    vertex 6.045713269179971 0 9.972256802891321
  endloop
endfacet
facet normal 0 -1 0
  outer loop
    vertex 52.80010217566838 0 11.35753531963424
    vertex 56.13551436046303 0 5.152502391265815
    vertex 59.9001687506704 0 10.06758812254096
  endloop
endfacet
facet normal 0 -1 0
  outer loop
    vertex 6.045713269179971 0 9.972256802891321
    vertex 12.82411160118399 0 10.68473763452858
    vertex 9.90867896029466 0 14.78945661841686
  endloop
endfacet
facet normal 0 -1 0
  outer loop
    vertex 52.80010217566838 0 11.35753531963424
    vertex 59.9001687506704 0 10.06758812254096
    vertex 56.16769207479182 0 15.24317223807368
  endloop
endfacet
facet normal 0 -1 0
  outer loop
    vertex 45.35601638375724 0 10.52978211393367
    vertex 52.80010217566838 0 11.35753531963424
    vertex 46.26496658553721 0 15.60127031556345
  endloop
endfacet
facet normal -0 -1 0
  outer loop
    vertex 15.66855744749017 0 17.79362195725914
    vertex 9.995526435923381 0 19.58998798777066
    vertex 9.90867896029466 0 14.78945661841686
  endloop
endfacet
facet normal 0 -1 0
  outer loop
    vertex 56.81311131234656 0 20.01412430974949
    vertex 50.33499917930414 0 18.87048061387586
    vertex 56.16769207479182 0 15.24317223807368
  endloop
endfacet
facet normal 0 -1 -0
  outer loop
    vertex 23.012733808538 0 17.9673759569211
    vertex 19.75728542827356 0 11.36465958273331
    vertex 26.04830241696398 0 11.32662267237523
  endloop
endfacet
facet normal -0 -1 0
  outer loop
    vertex 26.04830241696398 0 11.32662267237523
    vertex 19.75728542827356 0 11.36465958273331
    vertex 23.01851269473233 0 5.657474672111285
  endloop
endfacet
facet normal 0 -1 0
  outer loop
    vertex 29.37667719987013 0 5.540044168651524
    vertex 26.04830241696398 0 11.32662267237523
    vertex 23.01851269473233 0 5.657474672111285
  endloop
endfacet
facet normal 0 -1 0
  outer loop
    vertex 23.012733808538 0 17.9673759569211
    vertex 26.04830241696398 0 11.32662267237523
    vertex 30.01680742067288 0 17.10456659027388
  endloop
endfacet
facet normal 0 -1 0
  outer loop
    vertex 6.600000000000006 0 0
    vertex 13.20000000000002 0 0
    vertex 9.864490975979315 0 5.154159643356698
  endloop
endfacet
facet normal 0 -1 0
  outer loop
    vertex 52.79999999999995 0 0
    vertex 59.39999999999994 0 0
    vertex 56.13551436046303 0 5.152502391265815
  endloop
endfacet
facet normal 0 -1 0
  outer loop
    vertex 42.9470625243829 0 5.424912873876832
    vertex 46.19999999999999 0 0
    vertex 49.55474136675219 0 5.530438651107835
  endloop
endfacet
facet normal 0 -1 0
  outer loop
    vertex 16.48995692104005 0 5.598608841676725
    vertex 19.80000000000003 0 0
    vertex 23.01851269473233 0 5.657474672111285
  endloop
endfacet
facet normal 0 -1 0
  outer loop
    vertex 36.97058732831965 0 19.204080362367
    vertex 30.01680742067288 0 17.10456659027388
    vertex 35.62456918136998 0 12.8386866246018
  endloop
endfacet
facet normal 0 -1 0
  outer loop
    vertex 52.79999999999995 0 0
    vertex 56.13551436046303 0 5.152502391265815
    vertex 49.55474136675219 0 5.530438651107835
  endloop
endfacet
facet normal 0 -1 0
  outer loop
    vertex 9.864490975979315 0 5.154159643356698
    vertex 13.20000000000002 0 0
    vertex 16.48995692104005 0 5.598608841676725
  endloop
endfacet
facet normal 0 -1 0
  outer loop
    vertex 49.55474136675219 0 5.530438651107835
    vertex 56.13551436046303 0 5.152502391265815
    vertex 52.80010217566838 0 11.35753531963424
  endloop
endfacet
facet normal 0 -1 -0
  outer loop
    vertex 19.75728542827356 0 11.36465958273331
    vertex 16.48995692104005 0 5.598608841676725
    vertex 23.01851269473233 0 5.657474672111285
  endloop
endfacet
facet normal 0 -1 0
  outer loop
    vertex 9.864490975979315 0 5.154159643356698
    vertex 16.48995692104005 0 5.598608841676725
    vertex 12.82411160118399 0 10.68473763452858
  endloop
endfacet
facet normal 0 -1 -0
  outer loop
    vertex 36.97058732831965 0 19.204080362367
    vertex 35.62456918136998 0 12.8386866246018
    vertex 41.27529193507167 0 14.94305433448378
  endloop
endfacet
facet normal 0 -1 0
  outer loop
    vertex 46.19999999999999 0 0
    vertex 52.79999999999995 0 0
    vertex 49.55474136675219 0 5.530438651107835
  endloop
endfacet
facet normal 0 -1 0
  outer loop
    vertex 29.37667719987013 0 5.540044168651524
    vertex 33.00000000000004 0 0
    vertex 35.87951203872154 0 6.281824784291089
  endloop
endfacet
facet normal 0 -1 0
  outer loop
    vertex 39.60000000000001 0 0
    vertex 46.19999999999999 0 0
    vertex 42.9470625243829 0 5.424912873876832
  endloop
endfacet
facet normal 0 -1 0
  outer loop
    vertex 26.40000000000005 0 0
    vertex 33.00000000000004 0 0
    vertex 29.37667719987013 0 5.540044168651524
  endloop
endfacet
facet normal 0 -1 0
  outer loop
    vertex 33.00000000000004 0 0
    vertex 39.60000000000001 0 0
    vertex 35.87951203872154 0 6.281824784291089
  endloop
endfacet
facet normal 0 -1 0
  outer loop
    vertex 39.60000000000001 0 0
    vertex 42.9470625243829 0 5.424912873876832
    vertex 35.87951203872154 0 6.281824784291089
  endloop
endfacet
facet normal -0 -1 0
  outer loop
    vertex 52.79999999999995 0 25
    vertex 46.19999999999999 0 25
    vertex 50.33499917930414 0 18.87048061387586
  endloop
endfacet
facet normal -0 -1 0
  outer loop
    vertex 19.80000000000003 0 25
    vertex 13.20000000000002 0 25
    vertex 15.66855744749017 0 17.79362195725914
  endloop
endfacet
facet normal -0 -1 0
  outer loop
    vertex 39.60000000000001 0 25
    vertex 33.00000000000004 0 25
    vertex 36.97058732831965 0 19.204080362367
  endloop
endfacet
facet normal 0 -1 0
  outer loop
    vertex 13.20000000000002 0 0
    vertex 19.80000000000003 0 0
    vertex 16.48995692104005 0 5.598608841676725
  endloop
endfacet
facet normal 0 -1 0
  outer loop
    vertex 19.80000000000003 0 0
    vertex 26.40000000000005 0 0
    vertex 23.01851269473233 0 5.657474672111285
  endloop
endfacet
facet normal 0 -1 0
  outer loop
    vertex 26.40000000000005 0 0
    vertex 29.37667719987013 0 5.540044168651524
    vertex 23.01851269473233 0 5.657474672111285
  endloop
endfacet
facet normal 0 -1 0
  outer loop
    vertex 59.9001687506704 0 10.06758812254096
    vertex 60.99007895596962 0 15.90613282456786
    vertex 56.16769207479182 0 15.24317223807368
  endloop
endfacet
facet normal 0 -1 0
  outer loop
    vertex 5.009486047695791 0 15.90667870963461
    vertex 6.045713269179971 0 9.972256802891321
    vertex 9.90867896029466 0 14.78945661841686
  endloop
endfacet
facet normal 0 -1 0
  outer loop
    vertex 12.82411160118399 0 10.68473763452858
    vertex 16.48995692104005 0 5.598608841676725
    vertex 19.75728542827356 0 11.36465958273331
  endloop
endfacet
facet normal 0 -1 0
  outer loop
    vertex 66 0 12.50000000000004
    vertex 66 0 18.75000000000003
    vertex 60.99007895596962 0 15.90613282456786
  endloop
endfacet
facet normal 0 -1 0
  outer loop
    vertex 0 0 18.75000000000003
    vertex 0 0 12.50000000000004
    vertex 5.009486047695791 0 15.90667870963461
  endloop
endfacet
facet normal 0 -1 0
  outer loop
    vertex 42.9470625243829 0 5.424912873876832
    vertex 49.55474136675219 0 5.530438651107835
    vertex 45.35601638375724 0 10.52978211393367
  endloop
endfacet
facet normal -0 -1 0
  outer loop
    vertex 59.39999999999994 0 25
    vertex 52.79999999999995 0 25
    vertex 56.81311131234656 0 20.01412430974949
  endloop
endfacet
facet normal -0 -1 0
  outer loop
    vertex 13.20000000000002 0 25
    vertex 6.600000000000006 0 25
    vertex 9.995526435923381 0 19.58998798777066
  endloop
endfacet
facet normal 0 -1 0
  outer loop
    vertex 35.87951203872154 0 6.281824784291089
    vertex 35.62456918136998 0 12.8386866246018
    vertex 31.10742631453541 0 10.3663994211397
  endloop
endfacet
facet normal 0 -1 0
  outer loop
    vertex 49.55474136675219 0 5.530438651107835
    vertex 52.80010217566838 0 11.35753531963424
    vertex 45.35601638375724 0 10.52978211393367
  endloop
endfacet
facet normal -0 -1 0
  outer loop
    vertex 66 0 12.50000000000004
    vertex 60.99007895596962 0 15.90613282456786
    vertex 59.9001687506704 0 10.06758812254096
  endloop
endfacet
facet normal 0 -1 -0
  outer loop
    vertex 5.009486047695791 0 15.90667870963461
    vertex 0 0 12.50000000000004
    vertex 6.045713269179971 0 9.972256802891321
  endloop
endfacet
facet normal 0 -1 0
  outer loop
    vertex 42.9470625243829 0 5.424912873876832
    vertex 45.35601638375724 0 10.52978211393367
    vertex 39.91453592482689 0 9.948669092909736
  endloop
endfacet
facet normal 0 -1 -0
  outer loop
    vertex 52.79999999999995 0 25
    vertex 50.33499917930414 0 18.87048061387586
    vertex 56.81311131234656 0 20.01412430974949
  endloop
endfacet
facet normal 0 -1 0
  outer loop
    vertex 15.66855744749017 0 17.79362195725914
    vertex 13.20000000000002 0 25
    vertex 9.995526435923381 0 19.58998798777066
  endloop
endfacet
facet normal 0 -1 0
  outer loop
    vertex 66 0 6.250000000000018
    vertex 66 0 12.50000000000004
    vertex 59.9001687506704 0 10.06758812254096
  endloop
endfacet
facet normal 0 -1 0
  outer loop
    vertex 0 0 12.50000000000004
    vertex 0 0 6.250000000000018
    vertex 6.045713269179971 0 9.972256802891321
  endloop
endfacet
facet normal 0 -1 0
  outer loop
    vertex 36.97058732831965 0 19.204080362367
    vertex 41.27529193507167 0 14.94305433448378
    vertex 43.0275414212552 0 20.24108586832546
  endloop
endfacet
facet normal 0 -1 -0
  outer loop
    vertex 39.60000000000001 0 25
    vertex 36.97058732831965 0 19.204080362367
    vertex 43.0275414212552 0 20.24108586832546
  endloop
endfacet
facet normal 0 -1 0
  outer loop
    vertex 50.33499917930414 0 18.87048061387586
    vertex 46.19999999999999 0 25
    vertex 43.0275414212552 0 20.24108586832546
  endloop
endfacet
facet normal -0 -1 0
  outer loop
    vertex 45.35601638375724 0 10.52978211393367
    vertex 41.27529193507167 0 14.94305433448378
    vertex 39.91453592482689 0 9.948669092909736
  endloop
endfacet
facet normal 0 -1 0
  outer loop
    vertex 29.37667719987013 0 5.540044168651524
    vertex 35.87951203872154 0 6.281824784291089
    vertex 31.10742631453541 0 10.3663994211397
  endloop
endfacet
facet normal -0 -1 0
  outer loop
    vertex 66 0 25
    vertex 59.39999999999994 0 25
    vertex 61.38753025407976 0 20.48903194830822
  endloop
endfacet
facet normal -0 -1 0
  outer loop
    vertex 6.600000000000006 0 25
    vertex 0 0 25
    vertex 4.612469745920241 0 20.48903194830823
  endloop
endfacet
facet normal 0 -1 0
  outer loop
    vertex 35.62456918136998 0 12.8386866246018
    vertex 35.87951203872154 0 6.281824784291089
    vertex 39.91453592482689 0 9.948669092909736
  endloop
endfacet
facet normal 0 -1 -0
  outer loop
    vertex 30.01680742067288 0 17.10456659027388
    vertex 26.04830241696398 0 11.32662267237523
    vertex 31.10742631453541 0 10.3663994211397
  endloop
endfacet
facet normal -0 -1 0
  outer loop
    vertex 35.62456918136998 0 12.8386866246018
    vertex 30.01680742067288 0 17.10456659027388
    vertex 31.10742631453541 0 10.3663994211397
  endloop
endfacet
facet normal 0 -1 0
  outer loop
    vertex 59.39999999999994 0 0
    vertex 66 0 0
    vertex 61.40942627786578 0 4.487845850573737
  endloop
endfacet
facet normal 0 -1 0
  outer loop
    vertex 0 0 0
    vertex 6.600000000000006 0 0
    vertex 4.590573722134214 0 4.487845850573733
  endloop
endfacet
facet normal 0 -1 0
  outer loop
    vertex 66 0 18.75000000000003
    vertex 66 0 25
    vertex 61.38753025407976 0 20.48903194830822
  endloop
endfacet
facet normal 0 -1 0
  outer loop
    vertex 0 0 25
    vertex 0 0 18.75000000000003
    vertex 4.612469745920241 0 20.48903194830823
  endloop
endfacet
facet normal 0 -1 0
  outer loop
    vertex 66 0 0
    vertex 66 0 6.250000000000018
    vertex 61.40942627786578 0 4.487845850573737
  endloop
endfacet
facet normal 0 -1 0
  outer loop
    vertex 0 0 6.250000000000018
    vertex 0 0 0
    vertex 4.590573722134214 0 4.487845850573733
  endloop
endfacet
facet normal -0 -1 0
  outer loop
    vertex 46.19999999999999 0 25
    vertex 39.60000000000001 0 25
    vertex 43.0275414212552 0 20.24108586832546
  endloop
endfacet
facet normal 0 -1 -0
  outer loop
    vertex 59.39999999999994 0 25
    vertex 56.81311131234656 0 20.01412430974949
    vertex 61.38753025407976 0 20.48903194830822
  endloop
endfacet
facet normal 0 -1 0
  outer loop
    vertex 9.995526435923381 0 19.58998798777066
    vertex 6.600000000000006 0 25
    vertex 4.612469745920241 0 20.48903194830823
  endloop
endfacet
facet normal 0 -1 0
  outer loop
    vertex 56.13551436046303 0 5.152502391265815
    vertex 59.39999999999994 0 0
    vertex 61.40942627786578 0 4.487845850573737
  endloop
endfacet
facet normal 0 -1 0
  outer loop
    vertex 6.600000000000006 0 0
    vertex 9.864490975979315 0 5.154159643356698
    vertex 4.590573722134214 0 4.487845850573733
  endloop
endfacet
facet normal 0 -1 0
  outer loop
    vertex 41.27529193507167 0 14.94305433448378
    vertex 35.62456918136998 0 12.8386866246018
    vertex 39.91453592482689 0 9.948669092909736
  endloop
endfacet
facet normal 0 -1 0
  outer loop
    vertex 35.87951203872154 0 6.281824784291089
    vertex 42.9470625243829 0 5.424912873876832
    vertex 39.91453592482689 0 9.948669092909736
  endloop
endfacet
facet normal 0 -1 0
  outer loop
    vertex 56.81311131234656 0 20.01412430974949
    vertex 60.99007895596962 0 15.90613282456786
    vertex 61.38753025407976 0 20.48903194830822
  endloop
endfacet
facet normal 0 -1 0
  outer loop
    vertex 5.009486047695791 0 15.90667870963461
    vertex 9.995526435923381 0 19.58998798777066
    vertex 4.612469745920241 0 20.48903194830823
  endloop
endfacet
facet normal -0 -1 0
  outer loop
    vertex 50.33499917930414 0 18.87048061387586
    vertex 43.0275414212552 0 20.24108586832546
    vertex 46.26496658553721 0 15.60127031556345
  endloop
endfacet
facet normal 0 -1 0
  outer loop
    vertex 26.04830241696398 0 11.32662267237523
    vertex 29.37667719987013 0 5.540044168651524
    vertex 31.10742631453541 0 10.3663994211397
  endloop
endfacet
facet normal 0 -1 0
  outer loop
    vertex 60.99007895596962 0 15.90613282456786
    vertex 66 0 18.75000000000003
    vertex 61.38753025407976 0 20.48903194830822
  endloop
endfacet
facet normal 0 -1 0
  outer loop
    vertex 0 0 18.75000000000003
    vertex 5.009486047695791 0 15.90667870963461
    vertex 4.612469745920241 0 20.48903194830823
  endloop
endfacet
facet normal 0 -1 -0
  outer loop
    vertex 59.9001687506704 0 10.06758812254096
    vertex 56.13551436046303 0 5.152502391265815
    vertex 61.40942627786578 0 4.487845850573737
  endloop
endfacet
facet normal -0 -1 0
  outer loop
    vertex 9.864490975979315 0 5.154159643356698
    vertex 6.045713269179971 0 9.972256802891321
    vertex 4.590573722134214 0 4.487845850573733
  endloop
endfacet
facet normal -0 -1 0
  outer loop
    vertex 66 0 6.250000000000018
    vertex 59.9001687506704 0 10.06758812254096
    vertex 61.40942627786578 0 4.487845850573737
  endloop
endfacet
facet normal 0 -1 0
  outer loop
    vertex 6.045713269179971 0 9.972256802891321
    vertex 0 0 6.250000000000018
    vertex 4.590573722134214 0 4.487845850573733
  endloop
endfacet
facet normal -0 -1 0
  outer loop
    vertex 60.99007895596962 0 15.90613282456786
    vertex 56.81311131234656 0 20.01412430974949
    vertex 56.16769207479182 0 15.24317223807368
  endloop
endfacet
facet normal 0 -1 0
  outer loop
    vertex 9.995526435923381 0 19.58998798777066
    vertex 5.009486047695791 0 15.90667870963461
    vertex 9.90867896029466 0 14.78945661841686
  endloop
endfacet
facet normal 0 -1 0
  outer loop
    vertex 41.27529193507167 0 14.94305433448378
    vertex 45.35601638375724 0 10.52978211393367
    vertex 46.26496658553721 0 15.60127031556345
  endloop
endfacet
facet normal 0 -1 -0
  outer loop
    vertex 43.0275414212552 0 20.24108586832546
    vertex 41.27529193507167 0 14.94305433448378
    vertex 46.26496658553721 0 15.60127031556345
  endloop
endfacet
facet normal 0 1 0
  outer loop
    vertex 12.82621269643518 19 14.3129870276422
    vertex 19.58716677947166 19 13.61391882824766
    vertex 15.62755831013674 19 7.251707390052713
  endloop
endfacet
facet normal 0 1 0
  outer loop
    vertex 19.80000000000003 19 0
    vertex 22.9232622403908 19 6.738273547648145
    vertex 26.40000000000005 19 0
  endloop
endfacet
facet normal -0 1 0
  outer loop
    vertex 36.44198685050711 19 6.338548677488511
    vertex 40.24714641848151 19 13.30671376679744
    vertex 43.00489417402455 19 6.07431527670293
  endloop
endfacet
facet normal 0 1 -0
  outer loop
    vertex 33.21151353774619 19 12.37797780684609
    vertex 29.7579646650768 19 19.01355425531945
    vertex 36.43742077235565 19 18.98986079977556
  endloop
endfacet
facet normal 0 1 0
  outer loop
    vertex 26.40011580340165 19 13.4253032613498
    vertex 33.21151353774619 19 12.37797780684609
    vertex 29.72473254933468 19 6.138711806238701
  endloop
endfacet
facet normal 0 1 0
  outer loop
    vertex 52.80010217566838 19 11.35753531963424
    vertex 46.37979294511354 19 15.32979902180546
    vertex 50.36440004420623 19 18.72108367079412
  endloop
endfacet
facet normal 0 1 0
  outer loop
    vertex 50.36440004420623 19 18.72108367079412
    vertex 56.1745522766023 19 15.20831295135461
    vertex 52.80010217566838 19 11.35753531963424
  endloop
endfacet
facet normal 0 1 0
  outer loop
    vertex 15.62755831013674 19 7.251707390052713
    vertex 9.90076639026586 19 10.21936381745358
    vertex 12.82621269643518 19 14.3129870276422
  endloop
endfacet
facet normal 0 1 -0
  outer loop
    vertex 26.40000000000005 19 0
    vertex 22.9232622403908 19 6.738273547648145
    vertex 29.72473254933468 19 6.138711806238701
  endloop
endfacet
facet normal 0 1 0
  outer loop
    vertex 19.58716677947166 19 13.61391882824766
    vertex 22.9232622403908 19 6.738273547648145
    vertex 15.62755831013674 19 7.251707390052713
  endloop
endfacet
facet normal 0 1 0
  outer loop
    vertex 29.72473254933468 19 6.138711806238701
    vertex 22.9232622403908 19 6.738273547648145
    vertex 26.40011580340165 19 13.4253032613498
  endloop
endfacet
facet normal 0 1 0
  outer loop
    vertex 15.62755831013674 19 7.251707390052713
    vertex 22.9232622403908 19 6.738273547648145
    vertex 19.80000000000003 19 0
  endloop
endfacet
facet normal -0 1 0
  outer loop
    vertex 33.21151353774619 19 12.37797780684609
    vertex 40.24714641848151 19 13.30671376679744
    vertex 36.44198685050711 19 6.338548677488511
  endloop
endfacet
facet normal -0 1 0
  outer loop
    vertex 26.40011580340165 19 13.4253032613498
    vertex 29.7579646650768 19 19.01355425531945
    vertex 33.21151353774619 19 12.37797780684609
  endloop
endfacet
facet normal 0 1 0
  outer loop
    vertex 12.82621269643518 19 14.3129870276422
    vertex 6.046860852042234 19 15.02686700184612
    vertex 9.870603669864764 19 19.8422091028776
  endloop
endfacet
facet normal 0 1 0
  outer loop
    vertex 52.80010217566838 19 11.35753531963424
    vertex 59.9001687506704 19 10.06758812254096
    vertex 56.13551436046303 19 5.152502391265815
  endloop
endfacet
facet normal 0 1 0
  outer loop
    vertex 12.82621269643518 19 14.3129870276422
    vertex 9.90076639026586 19 10.21936381745358
    vertex 6.046860852042234 19 15.02686700184612
  endloop
endfacet
facet normal -0 1 0
  outer loop
    vertex 52.80010217566838 19 11.35753531963424
    vertex 56.1745522766023 19 15.20831295135461
    vertex 59.9001687506704 19 10.06758812254096
  endloop
endfacet
facet normal 0 1 0
  outer loop
    vertex 36.43742077235565 19 18.98986079977556
    vertex 40.24714641848151 19 13.30671376679744
    vertex 33.21151353774619 19 12.37797780684609
  endloop
endfacet
facet normal 0 1 0
  outer loop
    vertex 40.24714641848151 19 13.30671376679744
    vertex 46.3507861215004 19 10.48111609704656
    vertex 43.00489417402455 19 6.07431527670293
  endloop
endfacet
facet normal 0 1 0
  outer loop
    vertex 46.3507861215004 19 10.48111609704656
    vertex 46.37979294511354 19 15.32979902180546
    vertex 52.80010217566838 19 11.35753531963424
  endloop
endfacet
facet normal 0 1 -0
  outer loop
    vertex 9.99373986060518 19 5.411968773824722
    vertex 9.90076639026586 19 10.21936381745358
    vertex 15.62755831013674 19 7.251707390052713
  endloop
endfacet
facet normal 0 1 0
  outer loop
    vertex 56.81801145649692 19 19.98922481923587
    vertex 56.1745522766023 19 15.20831295135461
    vertex 50.36440004420623 19 18.72108367079412
  endloop
endfacet
facet normal 0 1 0
  outer loop
    vertex 33.21151353774619 19 12.37797780684609
    vertex 36.44198685050711 19 6.338548677488511
    vertex 29.72473254933468 19 6.138711806238701
  endloop
endfacet
facet normal 0 1 0
  outer loop
    vertex 33.00000000000004 19 0
    vertex 36.44198685050711 19 6.338548677488511
    vertex 39.60000000000001 19 0
  endloop
endfacet
facet normal -0 1 0
  outer loop
    vertex 36.43742077235565 19 18.98986079977556
    vertex 43.16894559833774 19 19.50504500331488
    vertex 40.24714641848151 19 13.30671376679744
  endloop
endfacet
facet normal 0 1 -0
  outer loop
    vertex 39.60000000000001 19 0
    vertex 36.44198685050711 19 6.338548677488511
    vertex 43.00489417402455 19 6.07431527670293
  endloop
endfacet
facet normal -0 1 0
  outer loop
    vertex 29.72473254933468 19 6.138711806238701
    vertex 36.44198685050711 19 6.338548677488511
    vertex 33.00000000000004 19 0
  endloop
endfacet
facet normal 0 1 0
  outer loop
    vertex 13.20000000000002 19 25
    vertex 16.49489025780369 19 19.39197667621253
    vertex 9.870603669864764 19 19.8422091028776
  endloop
endfacet
facet normal 0 1 0
  outer loop
    vertex 52.79999999999995 19 0
    vertex 56.13551436046303 19 5.152502391265815
    vertex 59.39999999999994 19 0
  endloop
endfacet
facet normal 0 1 0
  outer loop
    vertex 13.20000000000002 19 25
    vertex 9.870603669864764 19 19.8422091028776
    vertex 6.600000000000006 19 25
  endloop
endfacet
facet normal 0 1 0
  outer loop
    vertex 16.49489025780369 19 19.39197667621253
    vertex 12.82621269643518 19 14.3129870276422
    vertex 9.870603669864764 19 19.8422091028776
  endloop
endfacet
facet normal 0 1 0
  outer loop
    vertex 43.00489417402455 19 6.07431527670293
    vertex 49.53708148434458 19 5.654404339576048
    vertex 46.19999999999999 19 0
  endloop
endfacet
facet normal 0 1 -0
  outer loop
    vertex 52.79999999999995 19 0
    vertex 49.53708148434458 19 5.654404339576048
    vertex 56.13551436046303 19 5.152502391265815
  endloop
endfacet
facet normal 0 1 0
  outer loop
    vertex 19.80000000000003 19 25
    vertex 16.49489025780369 19 19.39197667621253
    vertex 13.20000000000002 19 25
  endloop
endfacet
facet normal 0 1 0
  outer loop
    vertex 23.09873787695727 19 19.28818366394526
    vertex 16.49489025780369 19 19.39197667621253
    vertex 19.80000000000003 19 25
  endloop
endfacet
facet normal -0 1 0
  outer loop
    vertex 49.53708148434458 19 5.654404339576048
    vertex 52.80010217566838 19 11.35753531963424
    vertex 56.13551436046303 19 5.152502391265815
  endloop
endfacet
facet normal 0 1 0
  outer loop
    vertex 16.49489025780369 19 19.39197667621253
    vertex 19.58716677947166 19 13.61391882824766
    vertex 12.82621269643518 19 14.3129870276422
  endloop
endfacet
facet normal 0 1 0
  outer loop
    vertex 23.09873787695727 19 19.28818366394526
    vertex 19.58716677947166 19 13.61391882824766
    vertex 16.49489025780369 19 19.39197667621253
  endloop
endfacet
facet normal 0 1 0
  outer loop
    vertex 46.19999999999999 19 0
    vertex 49.53708148434458 19 5.654404339576048
    vertex 52.79999999999995 19 0
  endloop
endfacet
facet normal 0 1 0
  outer loop
    vertex 36.43742077235565 19 18.98986079977556
    vertex 29.7579646650768 19 19.01355425531945
    vertex 33.00000000000004 19 25
  endloop
endfacet
facet normal 0 1 0
  outer loop
    vertex 33.00000000000004 19 25
    vertex 29.7579646650768 19 19.01355425531945
    vertex 26.40000000000005 19 25
  endloop
endfacet
facet normal 0 1 0
  outer loop
    vertex 26.40000000000005 19 25
    vertex 23.09873787695727 19 19.28818366394526
    vertex 19.80000000000003 19 25
  endloop
endfacet
facet normal 0 1 0
  outer loop
    vertex 39.60000000000001 19 0
    vertex 43.00489417402455 19 6.07431527670293
    vertex 46.19999999999999 19 0
  endloop
endfacet
facet normal 0 1 0
  outer loop
    vertex 26.40000000000005 19 0
    vertex 29.72473254933468 19 6.138711806238701
    vertex 33.00000000000004 19 0
  endloop
endfacet
facet normal 0 1 0
  outer loop
    vertex 13.20000000000002 19 0
    vertex 15.62755831013674 19 7.251707390052713
    vertex 19.80000000000003 19 0
  endloop
endfacet
facet normal 0 1 0
  outer loop
    vertex 52.79999999999995 19 25
    vertex 50.36440004420623 19 18.72108367079412
    vertex 46.19999999999999 19 25
  endloop
endfacet
facet normal 0 1 0
  outer loop
    vertex 39.60000000000001 19 25
    vertex 36.43742077235565 19 18.98986079977556
    vertex 33.00000000000004 19 25
  endloop
endfacet
facet normal 0 1 0
  outer loop
    vertex 26.40000000000005 19 25
    vertex 29.7579646650768 19 19.01355425531945
    vertex 23.09873787695727 19 19.28818366394526
  endloop
endfacet
facet normal -0 1 0
  outer loop
    vertex 43.00489417402455 19 6.07431527670293
    vertex 46.3507861215004 19 10.48111609704656
    vertex 49.53708148434458 19 5.654404339576048
  endloop
endfacet
facet normal 0 1 0
  outer loop
    vertex 26.40011580340165 19 13.4253032613498
    vertex 22.9232622403908 19 6.738273547648145
    vertex 19.58716677947166 19 13.61391882824766
  endloop
endfacet
facet normal 0 1 0
  outer loop
    vertex 23.09873787695727 19 19.28818366394526
    vertex 29.7579646650768 19 19.01355425531945
    vertex 26.40011580340165 19 13.4253032613498
  endloop
endfacet
facet normal 0 1 0
  outer loop
    vertex 23.09873787695727 19 19.28818366394526
    vertex 26.40011580340165 19 13.4253032613498
    vertex 19.58716677947166 19 13.61391882824766
  endloop
endfacet
facet normal 0 1 0
  outer loop
    vertex 6.046860852042234 19 15.02686700184612
    vertex 9.90076639026586 19 10.21936381745358
    vertex 5.009460232109967 19 9.093288893902116
  endloop
endfacet
facet normal 0 1 -0
  outer loop
    vertex 59.9001687506704 19 10.06758812254096
    vertex 56.1745522766023 19 15.20831295135461
    vertex 60.99007895596962 19 15.90613282456786
  endloop
endfacet
facet normal 0 1 0
  outer loop
    vertex 39.60000000000001 19 25
    vertex 43.16894559833774 19 19.50504500331488
    vertex 36.43742077235565 19 18.98986079977556
  endloop
endfacet
facet normal 0 1 0
  outer loop
    vertex 50.36440004420623 19 18.72108367079412
    vertex 43.16894559833774 19 19.50504500331488
    vertex 46.19999999999999 19 25
  endloop
endfacet
facet normal 0 1 -0
  outer loop
    vertex 49.53708148434458 19 5.654404339576048
    vertex 46.3507861215004 19 10.48111609704656
    vertex 52.80010217566838 19 11.35753531963424
  endloop
endfacet
facet normal 0 1 0
  outer loop
    vertex 0 19 12.50000000000004
    vertex 5.009460232109967 19 9.093288893902116
    vertex 0 19 6.250000000000018
  endloop
endfacet
facet normal 0 1 -0
  outer loop
    vertex 66 19 12.50000000000004
    vertex 60.99007895596962 19 15.90613282456786
    vertex 66 19 18.75000000000003
  endloop
endfacet
facet normal 0 1 0
  outer loop
    vertex 46.19999999999999 19 25
    vertex 43.16894559833774 19 19.50504500331488
    vertex 39.60000000000001 19 25
  endloop
endfacet
facet normal 0 1 0
  outer loop
    vertex 59.39999999999994 19 25
    vertex 56.81801145649692 19 19.98922481923587
    vertex 52.79999999999995 19 25
  endloop
endfacet
facet normal 0 1 0
  outer loop
    vertex 6.600000000000006 19 0
    vertex 9.99373986060518 19 5.411968773824722
    vertex 13.20000000000002 19 0
  endloop
endfacet
facet normal 0 1 0
  outer loop
    vertex 66 19 12.50000000000004
    vertex 59.9001687506704 19 10.06758812254096
    vertex 60.99007895596962 19 15.90613282456786
  endloop
endfacet
facet normal -0 1 0
  outer loop
    vertex 0 19 12.50000000000004
    vertex 6.046860852042234 19 15.02686700184612
    vertex 5.009460232109967 19 9.093288893902116
  endloop
endfacet
facet normal 0 1 0
  outer loop
    vertex 52.79999999999995 19 25
    vertex 56.81801145649692 19 19.98922481923587
    vertex 50.36440004420623 19 18.72108367079412
  endloop
endfacet
facet normal 0 1 -0
  outer loop
    vertex 13.20000000000002 19 0
    vertex 9.99373986060518 19 5.411968773824722
    vertex 15.62755831013674 19 7.251707390052713
  endloop
endfacet
facet normal 0 1 -0
  outer loop
    vertex 66 19 6.250000000000018
    vertex 59.9001687506704 19 10.06758812254096
    vertex 66 19 12.50000000000004
  endloop
endfacet
facet normal 0 1 0
  outer loop
    vertex 0 19 18.75000000000003
    vertex 6.046860852042234 19 15.02686700184612
    vertex 0 19 12.50000000000004
  endloop
endfacet
facet normal 0 1 0
  outer loop
    vertex 66 19 25
    vertex 61.84161808249331 19 20.92907152876075
    vertex 59.39999999999994 19 25
  endloop
endfacet
facet normal 0 1 0
  outer loop
    vertex 0 19 0
    vertex 4.612469745920276 19 4.510968051691812
    vertex 6.600000000000006 19 0
  endloop
endfacet
facet normal 0 1 0
  outer loop
    vertex 59.39999999999994 19 0
    vertex 61.40942627786578 19 4.487845850573737
    vertex 66 19 0
  endloop
endfacet
facet normal 0 1 0
  outer loop
    vertex 6.600000000000006 19 25
    vertex 4.590573722134181 19 20.51215414942631
    vertex 0 19 25
  endloop
endfacet
facet normal 0 1 0
  outer loop
    vertex 0 19 6.250000000000018
    vertex 4.612469745920276 19 4.510968051691812
    vertex 0 19 0
  endloop
endfacet
facet normal 0 1 -0
  outer loop
    vertex 66 19 18.75000000000003
    vertex 61.84161808249331 19 20.92907152876075
    vertex 66 19 25
  endloop
endfacet
facet normal 0 1 -0
  outer loop
    vertex 66 19 0
    vertex 61.40942627786578 19 4.487845850573737
    vertex 66 19 6.250000000000018
  endloop
endfacet
facet normal 0 1 0
  outer loop
    vertex 0 19 25
    vertex 4.590573722134181 19 20.51215414942631
    vertex 0 19 18.75000000000003
  endloop
endfacet
facet normal -0 1 0
  outer loop
    vertex 40.24714641848151 19 13.30671376679744
    vertex 46.37979294511354 19 15.32979902180546
    vertex 46.3507861215004 19 10.48111609704656
  endloop
endfacet
facet normal 0 1 0
  outer loop
    vertex 43.16894559833774 19 19.50504500331488
    vertex 46.37979294511354 19 15.32979902180546
    vertex 40.24714641848151 19 13.30671376679744
  endloop
endfacet
facet normal 0 1 0
  outer loop
    vertex 59.39999999999994 19 25
    vertex 61.84161808249331 19 20.92907152876075
    vertex 56.81801145649692 19 19.98922481923587
  endloop
endfacet
facet normal 0 1 -0
  outer loop
    vertex 6.600000000000006 19 0
    vertex 4.612469745920276 19 4.510968051691812
    vertex 9.99373986060518 19 5.411968773824722
  endloop
endfacet
facet normal 0 1 0
  outer loop
    vertex 56.13551436046303 19 5.152502391265815
    vertex 61.40942627786578 19 4.487845850573737
    vertex 59.39999999999994 19 0
  endloop
endfacet
facet normal 0 1 0
  outer loop
    vertex 9.870603669864764 19 19.8422091028776
    vertex 4.590573722134181 19 20.51215414942631
    vertex 6.600000000000006 19 25
  endloop
endfacet
facet normal -0 1 0
  outer loop
    vertex 56.81801145649692 19 19.98922481923587
    vertex 61.84161808249331 19 20.92907152876075
    vertex 60.99007895596962 19 15.90613282456786
  endloop
endfacet
facet normal 0 1 0
  outer loop
    vertex 9.99373986060518 19 5.411968773824722
    vertex 4.612469745920276 19 4.510968051691812
    vertex 5.009460232109967 19 9.093288893902116
  endloop
endfacet
facet normal 0 1 0
  outer loop
    vertex 60.99007895596962 19 15.90613282456786
    vertex 61.84161808249331 19 20.92907152876075
    vertex 66 19 18.75000000000003
  endloop
endfacet
facet normal 0 1 0
  outer loop
    vertex 5.009460232109967 19 9.093288893902116
    vertex 4.612469745920276 19 4.510968051691812
    vertex 0 19 6.250000000000018
  endloop
endfacet
facet normal 0 1 0
  outer loop
    vertex 50.36440004420623 19 18.72108367079412
    vertex 46.37979294511354 19 15.32979902180546
    vertex 43.16894559833774 19 19.50504500331488
  endloop
endfacet
facet normal 0 1 0
  outer loop
    vertex 59.9001687506704 19 10.06758812254096
    vertex 61.40942627786578 19 4.487845850573737
    vertex 56.13551436046303 19 5.152502391265815
  endloop
endfacet
facet normal 0 1 -0
  outer loop
    vertex 6.046860852042234 19 15.02686700184612
    vertex 4.590573722134181 19 20.51215414942631
    vertex 9.870603669864764 19 19.8422091028776
  endloop
endfacet
facet normal 0 1 0
  outer loop
    vertex 66 19 6.250000000000018
    vertex 61.40942627786578 19 4.487845850573737
    vertex 59.9001687506704 19 10.06758812254096
  endloop
endfacet
facet normal -0 1 0
  outer loop
    vertex 0 19 18.75000000000003
    vertex 4.590573722134181 19 20.51215414942631
    vertex 6.046860852042234 19 15.02686700184612
  endloop
endfacet
facet normal 0 1 0
  outer loop
    vertex 60.99007895596962 19 15.90613282456786
    vertex 56.1745522766023 19 15.20831295135461
    vertex 56.81801145649692 19 19.98922481923587
  endloop
endfacet
facet normal -0 1 0
  outer loop
    vertex 5.009460232109967 19 9.093288893902116
    vertex 9.90076639026586 19 10.21936381745358
    vertex 9.99373986060518 19 5.411968773824722
  endloop
endfacet
facet normal 0 0 -1
  outer loop
    vertex 6.159716457862967 9.500000000000007 0
    vertex 10.1215825829993 13.93925107699514 0
    vertex 13.23288907656186 9.500000000000007 0
  endloop
endfacet
facet normal 0 0 -1
  outer loop
    vertex 10.12158258299931 5.060748923004867 0
    vertex 6.159716457862967 9.500000000000007 0
    vertex 13.23288907656186 9.500000000000007 0
  endloop
endfacet
facet normal 0 0 -1
  outer loop
    vertex 59.84028354213702 9.500000000000005 0
    vertex 55.87841741700068 5.06074892300486 0
    vertex 52.79951972935638 9.5 0
  endloop
endfacet
facet normal 0 -0 -1
  outer loop
    vertex 55.87841741700066 13.93925107699514 0
    vertex 59.84028354213702 9.500000000000005 0
    vertex 52.79951972935638 9.5 0
  endloop
endfacet
facet normal 0 0 -1
  outer loop
    vertex 13.20000000000002 19 0
    vertex 19.80000000000003 19 0
    vertex 16.50000000000002 13.28423233502269 0
  endloop
endfacet
facet normal 0 -0 -1
  outer loop
    vertex 33.00000000000004 19 0
    vertex 36.30000000000003 13.28423233502273 0
    vertex 29.69866083374821 13.28374006335107 0
  endloop
endfacet
facet normal 0 0 -1
  outer loop
    vertex 16.50000000000002 13.28423233502269 0
    vertex 19.80000000000003 19 0
    vertex 23.09890404324707 13.28486508594904 0
  endloop
endfacet
facet normal 0 0 -1
  outer loop
    vertex 26.40000000000005 19 0
    vertex 33.00000000000004 19 0
    vertex 29.69866083374821 13.28374006335107 0
  endloop
endfacet
facet normal 0 0 -1
  outer loop
    vertex 19.80000000000003 0 0
    vertex 13.20000000000002 0 0
    vertex 16.50000000000004 5.71576766497731 0
  endloop
endfacet
facet normal -0 0 -1
  outer loop
    vertex 23.10000000000004 5.715767664977295 0
    vertex 19.80000000000003 0 0
    vertex 16.50000000000004 5.71576766497731 0
  endloop
endfacet
facet normal 0 0 -1
  outer loop
    vertex 23.09890404324707 13.28486508594904 0
    vertex 26.40000000000005 19 0
    vertex 29.69866083374821 13.28374006335107 0
  endloop
endfacet
facet normal 0 0 -1
  outer loop
    vertex 26.40000000000005 0 0
    vertex 23.10000000000004 5.715767664977295 0
    vertex 29.70000000000006 5.715767664977283 0
  endloop
endfacet
facet normal 0 0 -1
  outer loop
    vertex 26.40000000000005 0 0
    vertex 19.80000000000003 0 0
    vertex 23.10000000000004 5.715767664977295 0
  endloop
endfacet
facet normal 0 0 -1
  outer loop
    vertex 33.00000000000004 0 0
    vertex 26.40000000000005 0 0
    vertex 29.70000000000006 5.715767664977283 0
  endloop
endfacet
facet normal 0 0 -1
  outer loop
    vertex 33.00000000000004 19 0
    vertex 39.60000000000001 19 0
    vertex 36.30000000000003 13.28423233502273 0
  endloop
endfacet
facet normal -0 0 -1
  outer loop
    vertex 36.30000000000003 5.715767664977271 0
    vertex 33.00000000000004 0 0
    vertex 29.70000000000006 5.715767664977283 0
  endloop
endfacet
facet normal 0 0 -1
  outer loop
    vertex 52.79999999999995 0 0
    vertex 46.19999999999999 0 0
    vertex 49.49999999999996 5.715767664977265 0
  endloop
endfacet
facet normal 0 0 -1
  outer loop
    vertex 46.19999999999999 19 0
    vertex 52.79999999999995 19 0
    vertex 49.49999999999996 13.28423233502274 0
  endloop
endfacet
facet normal 0 0 -1
  outer loop
    vertex 36.30000000000003 13.28423233502273 0
    vertex 39.60000000000001 19 0
    vertex 42.90000000000001 13.28423233502275 0
  endloop
endfacet
facet normal 0 0 -1
  outer loop
    vertex 39.60000000000001 0 0
    vertex 33.00000000000004 0 0
    vertex 36.30000000000003 5.715767664977271 0
  endloop
endfacet
facet normal 0 0 -1
  outer loop
    vertex 39.60000000000001 19 0
    vertex 46.19999999999999 19 0
    vertex 42.90000000000001 13.28423233502275 0
  endloop
endfacet
facet normal 0 0 -1
  outer loop
    vertex 39.60000000000001 0 0
    vertex 36.30000000000003 5.715767664977271 0
    vertex 42.90000000000001 5.715767664977243 0
  endloop
endfacet
facet normal 0 0 -1
  outer loop
    vertex 46.19999999999999 0 0
    vertex 39.60000000000001 0 0
    vertex 42.90000000000001 5.715767664977243 0
  endloop
endfacet
facet normal 0 0 -1
  outer loop
    vertex 49.49999999999996 5.715767664977265 0
    vertex 46.19999999999999 0 0
    vertex 42.90000000000001 5.715767664977243 0
  endloop
endfacet
facet normal 0 -0 -1
  outer loop
    vertex 46.19999999999999 19 0
    vertex 49.49999999999996 13.28423233502274 0
    vertex 42.90000000000001 13.28423233502275 0
  endloop
endfacet
facet normal 0 0 -1
  outer loop
    vertex 19.80000000000003 19 0
    vertex 26.40000000000005 19 0
    vertex 23.09890404324707 13.28486508594904 0
  endloop
endfacet
facet normal 0 -0 -1
  outer loop
    vertex 66 12.66666666666667 0
    vertex 66 6.333333333333348 0
    vertex 59.84028354213702 9.500000000000005 0
  endloop
endfacet
facet normal 0 0 -1
  outer loop
    vertex 0 6.333333333333348 0
    vertex 0 12.66666666666667 0
    vertex 6.159716457862967 9.500000000000007 0
  endloop
endfacet
facet normal 0 0 -1
  outer loop
    vertex 6.600000000000006 19 0
    vertex 13.20000000000002 19 0
    vertex 10.1215825829993 13.93925107699514 0
  endloop
endfacet
facet normal 0 0 -1
  outer loop
    vertex 13.20000000000002 0 0
    vertex 6.600000000000006 0 0
    vertex 10.12158258299931 5.060748923004867 0
  endloop
endfacet
facet normal 0 0 -1
  outer loop
    vertex 52.79999999999995 19 0
    vertex 59.39999999999994 19 0
    vertex 55.87841741700066 13.93925107699514 0
  endloop
endfacet
facet normal 0 0 -1
  outer loop
    vertex 59.39999999999994 0 0
    vertex 52.79999999999995 0 0
    vertex 55.87841741700068 5.06074892300486 0
  endloop
endfacet
facet normal 0 -0 -1
  outer loop
    vertex 13.20000000000002 19 0
    vertex 16.50000000000002 13.28423233502269 0
    vertex 10.1215825829993 13.93925107699514 0
  endloop
endfacet
facet normal 0 0 -1
  outer loop
    vertex 16.50000000000004 5.71576766497731 0
    vertex 13.20000000000002 0 0
    vertex 10.12158258299931 5.060748923004867 0
  endloop
endfacet
facet normal 0 0 -1
  outer loop
    vertex 52.79999999999995 0 0
    vertex 49.49999999999996 5.715767664977265 0
    vertex 55.87841741700068 5.06074892300486 0
  endloop
endfacet
facet normal 0 0 -1
  outer loop
    vertex 49.49999999999996 13.28423233502274 0
    vertex 52.79999999999995 19 0
    vertex 55.87841741700066 13.93925107699514 0
  endloop
endfacet
facet normal 0 0 -1
  outer loop
    vertex 59.39999999999994 19 0
    vertex 66 19 0
    vertex 61.33589782314183 14.4117952753443 0
  endloop
endfacet
facet normal 0 0 -1
  outer loop
    vertex 66 0 0
    vertex 59.39999999999994 0 0
    vertex 61.33589782314183 4.588204724655718 0
  endloop
endfacet
facet normal 0 0 -1
  outer loop
    vertex 0 19 0
    vertex 6.600000000000006 19 0
    vertex 4.664102176858172 14.4117952753443 0
  endloop
endfacet
facet normal 0 0 -1
  outer loop
    vertex 6.600000000000006 0 0
    vertex 0 0 0
    vertex 4.664102176858172 4.588204724655711 0
  endloop
endfacet
facet normal 0 -0 -1
  outer loop
    vertex 66 6.333333333333348 0
    vertex 66 0 0
    vertex 61.33589782314183 4.588204724655718 0
  endloop
endfacet
facet normal 0 -0 -1
  outer loop
    vertex 66 19 0
    vertex 66 12.66666666666667 0
    vertex 61.33589782314183 14.4117952753443 0
  endloop
endfacet
facet normal 0 0 -1
  outer loop
    vertex 0 0 0
    vertex 0 6.333333333333348 0
    vertex 4.664102176858172 4.588204724655711 0
  endloop
endfacet
facet normal 0 0 -1
  outer loop
    vertex 0 12.66666666666667 0
    vertex 0 19 0
    vertex 4.664102176858172 14.4117952753443 0
  endloop
endfacet
facet normal 0 -0 -1
  outer loop
    vertex 6.600000000000006 19 0
    vertex 10.1215825829993 13.93925107699514 0
    vertex 4.664102176858172 14.4117952753443 0
  endloop
endfacet
facet normal 0 0 -1
  outer loop
    vertex 10.12158258299931 5.060748923004867 0
    vertex 6.600000000000006 0 0
    vertex 4.664102176858172 4.588204724655711 0
  endloop
endfacet
facet normal 0 0 -1
  outer loop
    vertex 55.87841741700066 13.93925107699514 0
    vertex 59.39999999999994 19 0
    vertex 61.33589782314183 14.4117952753443 0
  endloop
endfacet
facet normal 0 0 -1
  outer loop
    vertex 59.39999999999994 0 0
    vertex 55.87841741700068 5.06074892300486 0
    vertex 61.33589782314183 4.588204724655718 0
  endloop
endfacet
facet normal 0 0 -1
  outer loop
    vertex 32.99946638654856 9.500050288714428 0
    vertex 29.70000000000006 5.715767664977283 0
    vertex 26.39947436253837 9.500031794661517 0
  endloop
endfacet
facet normal 0 -0 -1
  outer loop
    vertex 29.69866083374821 13.28374006335107 0
    vertex 32.99946638654856 9.500050288714428 0
    vertex 26.39947436253837 9.500031794661517 0
  endloop
endfacet
facet normal 0 0 -1
  outer loop
    vertex 29.69866083374821 13.28374006335107 0
    vertex 36.30000000000003 13.28423233502273 0
    vertex 32.99946638654856 9.500050288714428 0
  endloop
endfacet
facet normal 0 0 -1
  outer loop
    vertex 23.10000000000004 5.715767664977295 0
    vertex 16.50000000000004 5.71576766497731 0
    vertex 19.79981491168631 9.500000000000004 0
  endloop
endfacet
facet normal 0 0 -1
  outer loop
    vertex 16.50000000000002 13.28423233502269 0
    vertex 23.09890404324707 13.28486508594904 0
    vertex 19.79981491168631 9.500000000000004 0
  endloop
endfacet
facet normal 0 0 -1
  outer loop
    vertex 36.30000000000003 5.715767664977271 0
    vertex 32.99946638654856 9.500050288714428 0
    vertex 39.59993647458913 9.500005986751713 0
  endloop
endfacet
facet normal 0 0 -1
  outer loop
    vertex 32.99946638654856 9.500050288714428 0
    vertex 36.30000000000003 13.28423233502273 0
    vertex 39.59993647458913 9.500005986751713 0
  endloop
endfacet
facet normal 0 0 -1
  outer loop
    vertex 29.70000000000006 5.715767664977283 0
    vertex 23.10000000000004 5.715767664977295 0
    vertex 26.39947436253837 9.500031794661517 0
  endloop
endfacet
facet normal 0 0 -1
  outer loop
    vertex 36.30000000000003 5.715767664977271 0
    vertex 29.70000000000006 5.715767664977283 0
    vertex 32.99946638654856 9.500050288714428 0
  endloop
endfacet
facet normal 0 0 -1
  outer loop
    vertex 42.90000000000001 5.715767664977243 0
    vertex 36.30000000000003 5.715767664977271 0
    vertex 39.59993647458913 9.500005986751713 0
  endloop
endfacet
facet normal 0 0 -1
  outer loop
    vertex 36.30000000000003 13.28423233502273 0
    vertex 42.90000000000001 13.28423233502275 0
    vertex 39.59993647458913 9.500005986751713 0
  endloop
endfacet
facet normal 0 0 -1
  outer loop
    vertex 42.90000000000001 13.28423233502275 0
    vertex 49.49999999999996 13.28423233502274 0
    vertex 46.2 9.5 0
  endloop
endfacet
facet normal 0 0 -1
  outer loop
    vertex 39.59993647458913 9.500005986751713 0
    vertex 42.90000000000001 13.28423233502275 0
    vertex 46.2 9.5 0
  endloop
endfacet
facet normal 0 0 -1
  outer loop
    vertex 42.90000000000001 5.715767664977243 0
    vertex 39.59993647458913 9.500005986751713 0
    vertex 46.2 9.5 0
  endloop
endfacet
facet normal -0 0 -1
  outer loop
    vertex 49.49999999999996 5.715767664977265 0
    vertex 42.90000000000001 5.715767664977243 0
    vertex 46.2 9.5 0
  endloop
endfacet
facet normal 0 0 -1
  outer loop
    vertex 23.09890404324707 13.28486508594904 0
    vertex 29.69866083374821 13.28374006335107 0
    vertex 26.39947436253837 9.500031794661517 0
  endloop
endfacet
facet normal 0 0 -1
  outer loop
    vertex 19.79981491168631 9.500000000000004 0
    vertex 23.09890404324707 13.28486508594904 0
    vertex 26.39947436253837 9.500031794661517 0
  endloop
endfacet
facet normal 0 0 -1
  outer loop
    vertex 23.10000000000004 5.715767664977295 0
    vertex 19.79981491168631 9.500000000000004 0
    vertex 26.39947436253837 9.500031794661517 0
  endloop
endfacet
facet normal -0 0 -1
  outer loop
    vertex 10.1215825829993 13.93925107699514 0
    vertex 6.159716457862967 9.500000000000007 0
    vertex 4.664102176858172 14.4117952753443 0
  endloop
endfacet
facet normal 0 -0 -1
  outer loop
    vertex 6.159716457862967 9.500000000000007 0
    vertex 10.12158258299931 5.060748923004867 0
    vertex 4.664102176858172 4.588204724655711 0
  endloop
endfacet
facet normal 0 0 -1
  outer loop
    vertex 59.84028354213702 9.500000000000005 0
    vertex 55.87841741700066 13.93925107699514 0
    vertex 61.33589782314183 14.4117952753443 0
  endloop
endfacet
facet normal 0 0 -1
  outer loop
    vertex 55.87841741700068 5.06074892300486 0
    vertex 59.84028354213702 9.500000000000005 0
    vertex 61.33589782314183 4.588204724655718 0
  endloop
endfacet
facet normal 0 -0 -1
  outer loop
    vertex 16.50000000000002 13.28423233502269 0
    vertex 19.79981491168631 9.500000000000004 0
    vertex 13.23288907656186 9.500000000000007 0
  endloop
endfacet
facet normal -0 0 -1
  outer loop
    vertex 19.79981491168631 9.500000000000004 0
    vertex 16.50000000000004 5.71576766497731 0
    vertex 13.23288907656186 9.500000000000007 0
  endloop
endfacet
facet normal 0 0 -1
  outer loop
    vertex 49.49999999999996 5.715767664977265 0
    vertex 46.2 9.5 0
    vertex 52.79951972935638 9.5 0
  endloop
endfacet
facet normal 0 0 -1
  outer loop
    vertex 46.2 9.5 0
    vertex 49.49999999999996 13.28423233502274 0
    vertex 52.79951972935638 9.5 0
  endloop
endfacet
facet normal 0 0 -1
  outer loop
    vertex 59.84028354213702 9.500000000000005 0
    vertex 66 6.333333333333348 0
    vertex 61.33589782314183 4.588204724655718 0
  endloop
endfacet
facet normal -0 0 -1
  outer loop
    vertex 66 12.66666666666667 0
    vertex 59.84028354213702 9.500000000000005 0
    vertex 61.33589782314183 14.4117952753443 0
  endloop
endfacet
facet normal 0 0 -1
  outer loop
    vertex 0 6.333333333333348 0
    vertex 6.159716457862967 9.500000000000007 0
    vertex 4.664102176858172 4.588204724655711 0
  endloop
endfacet
facet normal 0 0 -1
  outer loop
    vertex 6.159716457862967 9.500000000000007 0
    vertex 0 12.66666666666667 0
    vertex 4.664102176858172 14.4117952753443 0
  endloop
endfacet
facet normal 0 0 -1
  outer loop
    vertex 10.1215825829993 13.93925107699514 0
    vertex 16.50000000000002 13.28423233502269 0
    vertex 13.23288907656186 9.500000000000007 0
  endloop
endfacet
facet normal -0 0 -1
  outer loop
    vertex 16.50000000000004 5.71576766497731 0
    vertex 10.12158258299931 5.060748923004867 0
    vertex 13.23288907656186 9.500000000000007 0
  endloop
endfacet
facet normal 0 0 -1
  outer loop
    vertex 55.87841741700068 5.06074892300486 0
    vertex 49.49999999999996 5.715767664977265 0
    vertex 52.79951972935638 9.5 0
  endloop
endfacet
facet normal 0 0 -1
  outer loop
    vertex 49.49999999999996 13.28423233502274 0
    vertex 55.87841741700066 13.93925107699514 0
    vertex 52.79951972935638 9.5 0
  endloop
endfacet
facet normal -0 0 1
  outer loop
    vertex 6.159716457862968 9.500000000000005 25
    vertex 13.23820356771039 9.500000000000004 25
    vertex 10.12158258299931 13.93925107699514 25
  endloop
endfacet
facet normal 0 -0 1
  outer loop
    vertex 10.12158258299931 5.060748923004867 25
    vertex 13.23820356771039 9.500000000000004 25
    vertex 6.159716457862968 9.500000000000005 25
  endloop
endfacet
facet normal 0 0 1
  outer loop
    vertex 59.84028354213702 9.500000000000005 25
    vertex 52.79951972935638 9.5 25
    vertex 55.87841741700068 5.06074892300486 25
  endloop
endfacet
facet normal 0 0 1
  outer loop
    vertex 55.87841741700066 13.93925107699514 25
    vertex 52.79951972935638 9.5 25
    vertex 59.84028354213702 9.500000000000005 25
  endloop
endfacet
facet normal -0 0 1
  outer loop
    vertex 13.20000000000002 19 25
    vertex 16.50000000000002 13.28423233502269 25
    vertex 19.80000000000003 19 25
  endloop
endfacet
facet normal 0 0 1
  outer loop
    vertex 33.00000000000004 19 25
    vertex 29.69866083374821 13.28374006335107 25
    vertex 36.30000000000003 13.28423233502273 25
  endloop
endfacet
facet normal 0 0 1
  outer loop
    vertex 16.50000000000002 13.28423233502269 25
    vertex 23.09890404324707 13.28486508594904 25
    vertex 19.80000000000003 19 25
  endloop
endfacet
facet normal -0 0 1
  outer loop
    vertex 26.40000000000005 19 25
    vertex 29.69866083374821 13.28374006335107 25
    vertex 33.00000000000004 19 25
  endloop
endfacet
facet normal 0 0 1
  outer loop
    vertex 19.80000000000003 0 25
    vertex 16.50000000000004 5.71576766497731 25
    vertex 13.20000000000002 0 25
  endloop
endfacet
facet normal 0 0 1
  outer loop
    vertex 23.10000000000004 5.715767664977295 25
    vertex 16.50000000000004 5.71576766497731 25
    vertex 19.80000000000003 0 25
  endloop
endfacet
facet normal -0 0 1
  outer loop
    vertex 23.09890404324707 13.28486508594904 25
    vertex 29.69866083374821 13.28374006335107 25
    vertex 26.40000000000005 19 25
  endloop
endfacet
facet normal 0 -0 1
  outer loop
    vertex 26.40000000000005 0 25
    vertex 29.70000000000006 5.715767664977283 25
    vertex 23.10000000000004 5.715767664977295 25
  endloop
endfacet
facet normal 0 0 1
  outer loop
    vertex 26.40000000000005 0 25
    vertex 23.10000000000004 5.715767664977295 25
    vertex 19.80000000000003 0 25
  endloop
endfacet
facet normal 0 0 1
  outer loop
    vertex 33.00000000000004 0 25
    vertex 29.70000000000006 5.715767664977283 25
    vertex 26.40000000000005 0 25
  endloop
endfacet
facet normal -0 0 1
  outer loop
    vertex 33.00000000000004 19 25
    vertex 36.30000000000003 13.28423233502273 25
    vertex 39.60000000000001 19 25
  endloop
endfacet
facet normal 0 0 1
  outer loop
    vertex 36.30000000000003 5.715767664977271 25
    vertex 29.70000000000006 5.715767664977283 25
    vertex 33.00000000000004 0 25
  endloop
endfacet
facet normal 0 0 1
  outer loop
    vertex 52.79999999999995 0 25
    vertex 49.49999999999996 5.715767664977265 25
    vertex 46.19999999999999 0 25
  endloop
endfacet
facet normal -0 0 1
  outer loop
    vertex 46.19999999999999 19 25
    vertex 49.49999999999996 13.28423233502274 25
    vertex 52.79999999999995 19 25
  endloop
endfacet
facet normal 0 0 1
  outer loop
    vertex 36.30000000000003 13.28423233502273 25
    vertex 42.90000000000001 13.28423233502275 25
    vertex 39.60000000000001 19 25
  endloop
endfacet
facet normal 0 0 1
  outer loop
    vertex 39.60000000000001 0 25
    vertex 36.30000000000003 5.715767664977271 25
    vertex 33.00000000000004 0 25
  endloop
endfacet
facet normal -0 0 1
  outer loop
    vertex 39.60000000000001 19 25
    vertex 42.90000000000001 13.28423233502275 25
    vertex 46.19999999999999 19 25
  endloop
endfacet
facet normal 0 -0 1
  outer loop
    vertex 39.60000000000001 0 25
    vertex 42.90000000000001 5.715767664977243 25
    vertex 36.30000000000003 5.715767664977271 25
  endloop
endfacet
facet normal 0 0 1
  outer loop
    vertex 46.19999999999999 0 25
    vertex 42.90000000000001 5.715767664977243 25
    vertex 39.60000000000001 0 25
  endloop
endfacet
facet normal 0 0 1
  outer loop
    vertex 49.49999999999996 5.715767664977265 25
    vertex 42.90000000000001 5.715767664977243 25
    vertex 46.19999999999999 0 25
  endloop
endfacet
facet normal 0 0 1
  outer loop
    vertex 46.19999999999999 19 25
    vertex 42.90000000000001 13.28423233502275 25
    vertex 49.49999999999996 13.28423233502274 25
  endloop
endfacet
facet normal -0 0 1
  outer loop
    vertex 19.80000000000003 19 25
    vertex 23.09890404324707 13.28486508594904 25
    vertex 26.40000000000005 19 25
  endloop
endfacet
facet normal 0 0 1
  outer loop
    vertex 66 12.66666666666667 25
    vertex 59.84028354213702 9.500000000000005 25
    vertex 66 6.333333333333348 25
  endloop
endfacet
facet normal 0 0 1
  outer loop
    vertex 0 6.333333333333348 25
    vertex 6.159716457862968 9.500000000000005 25
    vertex 0 12.66666666666667 25
  endloop
endfacet
facet normal -0 0 1
  outer loop
    vertex 6.600000000000006 19 25
    vertex 10.12158258299931 13.93925107699514 25
    vertex 13.20000000000002 19 25
  endloop
endfacet
facet normal 0 0 1
  outer loop
    vertex 13.20000000000002 0 25
    vertex 10.12158258299931 5.060748923004867 25
    vertex 6.600000000000006 0 25
  endloop
endfacet
facet normal -0 0 1
  outer loop
    vertex 52.79999999999995 19 25
    vertex 55.87841741700066 13.93925107699514 25
    vertex 59.39999999999994 19 25
  endloop
endfacet
facet normal 0 0 1
  outer loop
    vertex 59.39999999999994 0 25
    vertex 55.87841741700068 5.06074892300486 25
    vertex 52.79999999999995 0 25
  endloop
endfacet
facet normal 0 0 1
  outer loop
    vertex 13.20000000000002 19 25
    vertex 10.12158258299931 13.93925107699514 25
    vertex 16.50000000000002 13.28423233502269 25
  endloop
endfacet
facet normal 0 0 1
  outer loop
    vertex 16.50000000000004 5.71576766497731 25
    vertex 10.12158258299931 5.060748923004867 25
    vertex 13.20000000000002 0 25
  endloop
endfacet
facet normal 0 -0 1
  outer loop
    vertex 52.79999999999995 0 25
    vertex 55.87841741700068 5.06074892300486 25
    vertex 49.49999999999996 5.715767664977265 25
  endloop
endfacet
facet normal 0 0 1
  outer loop
    vertex 49.49999999999996 13.28423233502274 25
    vertex 55.87841741700066 13.93925107699514 25
    vertex 52.79999999999995 19 25
  endloop
endfacet
facet normal -0 0 1
  outer loop
    vertex 59.39999999999994 19 25
    vertex 61.33589782314183 14.4117952753443 25
    vertex 66 19 25
  endloop
endfacet
facet normal 0 0 1
  outer loop
    vertex 66 0 25
    vertex 61.33589782314183 4.588204724655718 25
    vertex 59.39999999999994 0 25
  endloop
endfacet
facet normal -0 0 1
  outer loop
    vertex 0 19 25
    vertex 4.664102176858171 14.4117952753443 25
    vertex 6.600000000000006 19 25
  endloop
endfacet
facet normal 0 0 1
  outer loop
    vertex 6.600000000000006 0 25
    vertex 4.664102176858174 4.588204724655712 25
    vertex 0 0 25
  endloop
endfacet
facet normal 0 0 1
  outer loop
    vertex 66 6.333333333333348 25
    vertex 61.33589782314183 4.588204724655718 25
    vertex 66 0 25
  endloop
endfacet
facet normal 0 0 1
  outer loop
    vertex 66 19 25
    vertex 61.33589782314183 14.4117952753443 25
    vertex 66 12.66666666666667 25
  endloop
endfacet
facet normal 0 0 1
  outer loop
    vertex 0 0 25
    vertex 4.664102176858174 4.588204724655712 25
    vertex 0 6.333333333333348 25
  endloop
endfacet
facet normal 0 0 1
  outer loop
    vertex 0 12.66666666666667 25
    vertex 4.664102176858171 14.4117952753443 25
    vertex 0 19 25
  endloop
endfacet
facet normal 0 0 1
  outer loop
    vertex 6.600000000000006 19 25
    vertex 4.664102176858171 14.4117952753443 25
    vertex 10.12158258299931 13.93925107699514 25
  endloop
endfacet
facet normal 0 0 1
  outer loop
    vertex 10.12158258299931 5.060748923004867 25
    vertex 4.664102176858174 4.588204724655712 25
    vertex 6.600000000000006 0 25
  endloop
endfacet
facet normal 0 0 1
  outer loop
    vertex 55.87841741700066 13.93925107699514 25
    vertex 61.33589782314183 14.4117952753443 25
    vertex 59.39999999999994 19 25
  endloop
endfacet
facet normal 0 -0 1
  outer loop
    vertex 59.39999999999994 0 25
    vertex 61.33589782314183 4.588204724655718 25
    vertex 55.87841741700068 5.06074892300486 25
  endloop
endfacet
facet normal 0 0 1
  outer loop
    vertex 32.99946638654856 9.500050288714428 25
    vertex 26.39947436253837 9.500031794661517 25
    vertex 29.70000000000006 5.715767664977283 25
  endloop
endfacet
facet normal 0 0 1
  outer loop
    vertex 29.69866083374821 13.28374006335107 25
    vertex 26.39947436253837 9.500031794661517 25
    vertex 32.99946638654856 9.500050288714428 25
  endloop
endfacet
facet normal -0 0 1
  outer loop
    vertex 29.69866083374821 13.28374006335107 25
    vertex 32.99946638654856 9.500050288714428 25
    vertex 36.30000000000003 13.28423233502273 25
  endloop
endfacet
facet normal 0 0 1
  outer loop
    vertex 23.10000000000004 5.715767664977295 25
    vertex 19.79981491168631 9.500000000000004 25
    vertex 16.50000000000004 5.71576766497731 25
  endloop
endfacet
facet normal -0 0 1
  outer loop
    vertex 16.50000000000002 13.28423233502269 25
    vertex 19.79981491168631 9.500000000000004 25
    vertex 23.09890404324707 13.28486508594904 25
  endloop
endfacet
facet normal 0 -0 1
  outer loop
    vertex 36.30000000000003 5.715767664977271 25
    vertex 39.59993647458913 9.500005986751713 25
    vertex 32.99946638654856 9.500050288714428 25
  endloop
endfacet
facet normal -0 0 1
  outer loop
    vertex 32.99946638654856 9.500050288714428 25
    vertex 39.59993647458913 9.500005986751713 25
    vertex 36.30000000000003 13.28423233502273 25
  endloop
endfacet
facet normal 0 0 1
  outer loop
    vertex 29.70000000000006 5.715767664977283 25
    vertex 26.39947436253837 9.500031794661517 25
    vertex 23.10000000000004 5.715767664977295 25
  endloop
endfacet
facet normal 0 0 1
  outer loop
    vertex 36.30000000000003 5.715767664977271 25
    vertex 32.99946638654856 9.500050288714428 25
    vertex 29.70000000000006 5.715767664977283 25
  endloop
endfacet
facet normal 0 0 1
  outer loop
    vertex 42.90000000000001 5.715767664977243 25
    vertex 39.59993647458913 9.500005986751713 25
    vertex 36.30000000000003 5.715767664977271 25
  endloop
endfacet
facet normal -0 0 1
  outer loop
    vertex 36.30000000000003 13.28423233502273 25
    vertex 39.59993647458913 9.500005986751713 25
    vertex 42.90000000000001 13.28423233502275 25
  endloop
endfacet
facet normal 0 0 1
  outer loop
    vertex 42.90000000000001 13.28423233502275 25
    vertex 46.2 9.5 25
    vertex 49.49999999999996 13.28423233502274 25
  endloop
endfacet
facet normal -0 0 1
  outer loop
    vertex 39.59993647458913 9.500005986751713 25
    vertex 46.2 9.5 25
    vertex 42.90000000000001 13.28423233502275 25
  endloop
endfacet
facet normal 0 -0 1
  outer loop
    vertex 42.90000000000001 5.715767664977243 25
    vertex 46.2 9.5 25
    vertex 39.59993647458913 9.500005986751713 25
  endloop
endfacet
facet normal 0 0 1
  outer loop
    vertex 49.49999999999996 5.715767664977265 25
    vertex 46.2 9.5 25
    vertex 42.90000000000001 5.715767664977243 25
  endloop
endfacet
facet normal 0 0 1
  outer loop
    vertex 23.09890404324707 13.28486508594904 25
    vertex 26.39947436253837 9.500031794661517 25
    vertex 29.69866083374821 13.28374006335107 25
  endloop
endfacet
facet normal 0 0 1
  outer loop
    vertex 19.79981491168631 9.500000000000004 25
    vertex 26.39947436253837 9.500031794661517 25
    vertex 23.09890404324707 13.28486508594904 25
  endloop
endfacet
facet normal 0 -0 1
  outer loop
    vertex 23.10000000000004 5.715767664977295 25
    vertex 26.39947436253837 9.500031794661517 25
    vertex 19.79981491168631 9.500000000000004 25
  endloop
endfacet
facet normal 0 0 1
  outer loop
    vertex 10.12158258299931 13.93925107699514 25
    vertex 4.664102176858171 14.4117952753443 25
    vertex 6.159716457862968 9.500000000000005 25
  endloop
endfacet
facet normal 0 0 1
  outer loop
    vertex 6.159716457862968 9.500000000000005 25
    vertex 4.664102176858174 4.588204724655712 25
    vertex 10.12158258299931 5.060748923004867 25
  endloop
endfacet
facet normal 0 -0 1
  outer loop
    vertex 59.84028354213702 9.500000000000005 25
    vertex 61.33589782314183 14.4117952753443 25
    vertex 55.87841741700066 13.93925107699514 25
  endloop
endfacet
facet normal -0 0 1
  outer loop
    vertex 55.87841741700068 5.06074892300486 25
    vertex 61.33589782314183 4.588204724655718 25
    vertex 59.84028354213702 9.500000000000005 25
  endloop
endfacet
facet normal 0 0 1
  outer loop
    vertex 16.50000000000002 13.28423233502269 25
    vertex 13.23820356771039 9.500000000000004 25
    vertex 19.79981491168631 9.500000000000004 25
  endloop
endfacet
facet normal 0 0 1
  outer loop
    vertex 19.79981491168631 9.500000000000004 25
    vertex 13.23820356771039 9.500000000000004 25
    vertex 16.50000000000004 5.71576766497731 25
  endloop
endfacet
facet normal 0 -0 1
  outer loop
    vertex 49.49999999999996 5.715767664977265 25
    vertex 52.79951972935638 9.5 25
    vertex 46.2 9.5 25
  endloop
endfacet
facet normal 0 0 1
  outer loop
    vertex 46.2 9.5 25
    vertex 52.79951972935638 9.5 25
    vertex 49.49999999999996 13.28423233502274 25
  endloop
endfacet
facet normal 0 0 1
  outer loop
    vertex 59.84028354213702 9.500000000000005 25
    vertex 61.33589782314183 4.588204724655718 25
    vertex 66 6.333333333333348 25
  endloop
endfacet
facet normal 0 0 1
  outer loop
    vertex 66 12.66666666666667 25
    vertex 61.33589782314183 14.4117952753443 25
    vertex 59.84028354213702 9.500000000000005 25
  endloop
endfacet
facet normal -0 0 1
  outer loop
    vertex 0 6.333333333333348 25
    vertex 4.664102176858174 4.588204724655712 25
    vertex 6.159716457862968 9.500000000000005 25
  endloop
endfacet
facet normal 0 0 1
  outer loop
    vertex 6.159716457862968 9.500000000000005 25
    vertex 4.664102176858171 14.4117952753443 25
    vertex 0 12.66666666666667 25
  endloop
endfacet
facet normal 0 0 1
  outer loop
    vertex 10.12158258299931 13.93925107699514 25
    vertex 13.23820356771039 9.500000000000004 25
    vertex 16.50000000000002 13.28423233502269 25
  endloop
endfacet
facet normal 0 0 1
  outer loop
    vertex 16.50000000000004 5.71576766497731 25
    vertex 13.23820356771039 9.500000000000004 25
    vertex 10.12158258299931 5.060748923004867 25
  endloop
endfacet
facet normal 0 0 1
  outer loop
    vertex 55.87841741700068 5.06074892300486 25
    vertex 52.79951972935638 9.5 25
    vertex 49.49999999999996 5.715767664977265 25
  endloop
endfacet
facet normal -0 0 1
  outer loop
    vertex 49.49999999999996 13.28423233502274 25
    vertex 52.79951972935638 9.5 25
    vertex 55.87841741700066 13.93925107699514 25
  endloop
endfacet
endsolid Created by Gmsh
